<svg width="295" height="50" viewBox="0 0 295 50" fill="none" xmlns="http://www.w3.org/2000/svg">
<path d="M70.2284 15.4402L76.9334 15.0249C77.0797 16.1004 77.3755 16.9192 77.821 17.4812C78.5487 18.3923 79.5859 18.8478 80.9325 18.8478C81.9374 18.8478 82.7127 18.6155 83.2585 18.1507C83.5084 17.9577 83.7115 17.712 83.8527 17.4316C83.9939 17.1511 84.0697 16.843 84.0746 16.5299C84.0705 16.2297 83.9998 15.934 83.8677 15.6636C83.7355 15.3932 83.545 15.1546 83.3095 14.9645C82.7994 14.5048 81.5965 14.0694 79.7006 13.6583C76.6095 12.9738 74.4051 12.0627 73.0874 10.9251C72.4462 10.3951 71.9342 9.72943 71.5893 8.97742C71.2445 8.22542 71.0757 7.40644 71.0955 6.58126C71.1004 5.41515 71.4554 4.27662 72.1157 3.30951C72.8698 2.21949 73.935 1.37507 75.1762 0.883374C76.5364 0.294458 78.4067 0 80.7871 0C83.7014 0 85.9237 0.535226 87.4539 1.60568C88.9842 2.67613 89.8947 4.37744 90.1854 6.70962L83.5416 7.09216C83.3716 6.08547 83.0009 5.3489 82.4296 4.88247C81.8583 4.41603 81.0762 4.18365 80.0832 4.18533C79.2645 4.18533 78.6473 4.35899 78.2342 4.70126C78.039 4.84935 77.8813 5.04003 77.7733 5.25835C77.6653 5.47667 77.6101 5.7167 77.6119 5.95963C77.618 6.14814 77.6671 6.33287 77.7554 6.50015C77.8437 6.66743 77.969 6.81299 78.1219 6.92606C78.4535 7.22303 79.2416 7.49987 80.4862 7.75658C83.5671 8.41093 85.7775 9.07367 87.1173 9.7448C88.4571 10.4159 89.4263 11.2473 90.0248 12.2389C90.6356 13.2448 90.9508 14.3985 90.9352 15.571C90.9426 16.9908 90.5208 18.3805 89.7238 19.5626C88.8943 20.7951 87.7142 21.7582 86.3317 22.331C84.878 22.9602 83.0468 23.2748 80.8381 23.2748C76.9598 23.2748 74.2733 22.5382 72.7788 21.0651C71.2843 19.5919 70.4341 17.717 70.2284 15.4402ZM1.59911 22.8973V0.380027H13.3464C15.5244 0.380027 17.189 0.563749 18.3401 0.931192C19.4739 1.28856 20.4542 2.00963 21.1251 2.97981C21.8554 4.05666 22.2271 5.33141 22.1887 6.62656C22.2182 7.75679 21.9361 8.87371 21.3725 9.85805C20.8317 10.7706 20.0658 11.5333 19.146 12.0753C18.3728 12.4962 17.5383 12.7967 16.6721 12.9662C17.3202 13.1546 17.9377 13.4334 18.5059 13.7942C18.9281 14.1406 19.3081 14.5341 19.6382 14.967C20.0097 15.3973 20.3385 15.8616 20.6202 16.3537L24.0326 22.8973H16.0676L12.3032 16.009C11.8255 15.118 11.4004 14.5392 11.028 14.2724C10.5206 13.9254 9.91612 13.7433 9.29883 13.7514H8.67143V22.8973H1.59911ZM8.67143 9.49816H11.6503C12.2808 9.45171 12.9056 9.34894 13.5172 9.19112C13.9743 9.10459 14.3819 8.85228 14.6598 8.48392C14.9537 8.11182 15.1102 7.65196 15.1036 7.18025C15.1228 6.86708 15.0696 6.5537 14.9481 6.26378C14.8266 5.97385 14.6399 5.71495 14.4022 5.50662C13.9363 5.11736 13.0599 4.92273 11.7727 4.92273H8.67143V9.49816ZM0 42.1654L6.70506 41.7526C6.85128 42.8281 7.14713 43.6469 7.5926 44.209C8.31182 45.12 9.35154 45.5756 10.7118 45.5756C11.7166 45.5756 12.492 45.3423 13.0378 44.8759C13.2877 44.6829 13.4907 44.4372 13.6319 44.1568C13.7732 43.8763 13.849 43.5683 13.8539 43.2551C13.8494 42.955 13.7786 42.6594 13.6465 42.3891C13.5143 42.1187 13.324 41.88 13.0888 41.6897C12.5787 41.23 11.3757 40.7954 9.47991 40.3861C6.3888 39.6981 4.18439 38.7871 2.86667 37.6529C2.22553 37.1222 1.71359 36.4561 1.36879 35.7037C1.02398 34.9513 0.85515 34.132 0.874794 33.3065C0.88044 32.1405 1.23538 31.0022 1.89496 30.0347C2.64906 28.9447 3.71428 28.1003 4.95547 27.6086C6.31569 27.0197 8.186 26.7252 10.5664 26.7252C13.4807 26.7252 15.7029 27.2604 17.2332 28.3309C18.7634 29.4013 19.6739 31.1027 19.9647 33.4348L13.3336 33.8199C13.1636 32.8132 12.7929 32.0758 12.2216 31.6077C11.6503 31.1396 10.869 30.9097 9.87778 30.9181C9.05994 30.9181 8.44359 31.0859 8.02872 31.4214C7.83357 31.5695 7.67582 31.7602 7.56785 31.9785C7.45989 32.1969 7.40463 32.4369 7.40642 32.6798C7.41223 32.8688 7.46111 33.054 7.54942 33.2217C7.63772 33.3895 7.76319 33.5354 7.91651 33.6488C8.24806 33.9457 9.03614 34.2217 10.2807 34.4768C13.3617 35.1311 15.572 35.7938 16.9118 36.465C18.2517 37.1361 19.2208 37.9675 19.8193 38.9591C20.4297 39.9651 20.745 41.1187 20.7298 42.2912C20.7375 43.711 20.3157 45.1008 19.5184 46.2828C18.6888 47.5152 17.5087 48.4784 16.1263 49.0512C14.6726 49.6804 12.8414 49.9949 10.6327 49.9949C6.75436 49.9949 4.06792 49.2584 2.57337 47.7853C1.07883 46.3121 0.221036 44.4388 0 42.1654ZM41.5719 40.4012L47.749 42.2434C47.4073 43.7898 46.739 45.2476 45.7877 46.5219C44.9208 47.6477 43.7806 48.5401 42.4722 49.1166C41.1493 49.6988 39.4661 49.9899 37.4223 49.9899C34.9433 49.9899 32.9183 49.6351 31.3472 48.9253C29.7762 48.2156 28.4159 46.9648 27.2666 45.1729C26.124 43.3826 25.5535 41.0916 25.5552 38.2997C25.5552 34.5783 26.5584 31.7167 28.5647 29.7151C30.571 27.7135 33.4105 26.7135 37.0831 26.7151C39.9583 26.7151 42.2171 27.289 43.8596 28.4366C45.5021 29.5842 46.7229 31.3459 47.522 33.7217L41.299 35.0883C41.1528 34.5527 40.9222 34.0431 40.6155 33.5783C40.2385 33.0619 39.743 32.641 39.1694 32.3501C38.5749 32.0578 37.9181 31.9103 37.254 31.9198C35.6574 31.9198 34.4341 32.554 33.5839 33.8224C32.9378 34.7637 32.6156 36.241 32.6173 38.2544C32.6173 40.7476 33.0016 42.4573 33.7701 43.3835C34.5387 44.3096 35.6175 44.7719 37.0066 44.7702C38.3532 44.7702 39.3734 44.3969 40.0671 43.6503C40.7608 42.9036 41.2624 41.8206 41.5719 40.4012ZM53.1788 27.1052H60.2256V34.9776H67.9279V27.1052H75.0053V49.6124H67.9279V40.5144H60.2256V49.62H53.1788V27.1052ZM79.3921 38.3727C79.3921 34.7016 80.4292 31.8409 82.5036 29.7906C84.5779 27.7403 87.4684 26.7168 91.175 26.7202C94.97 26.7202 97.8945 27.7269 99.9484 29.7403C102.002 31.7537 103.032 34.5699 103.037 38.1889C103.037 40.8214 102.588 42.9791 101.69 44.662C100.817 46.3227 99.4631 47.69 97.801 48.5906C96.1007 49.5268 93.9873 49.9949 91.4606 49.9949C88.8898 49.9949 86.7645 49.5906 85.0846 48.7819C83.3587 47.9379 81.9305 46.6004 80.9861 44.9439C79.9217 43.1956 79.3904 41.0052 79.3921 38.3727ZM86.4389 38.4054C86.4389 40.6788 86.8639 42.3114 87.7141 43.303C88.5642 44.2945 89.7289 44.7903 91.2081 44.7903C92.7231 44.7903 93.8954 44.3046 94.7252 43.3331C95.5549 42.3617 95.9698 40.6168 95.9698 38.0983C95.9698 35.9792 95.5362 34.4306 94.6691 33.4524C93.8019 32.4743 92.627 31.986 91.1444 31.9877C90.4997 31.9648 89.8582 32.0861 89.2677 32.3423C88.6772 32.5986 88.1531 32.9832 87.7345 33.4675C86.8724 34.4742 86.4406 36.1202 86.4389 38.4054Z" fill="black"/>
<path d="M100.048 38.3722C100.048 34.7011 101.085 31.8405 103.159 29.7902C105.234 27.7399 108.124 26.7164 111.831 26.7197C115.629 26.7197 118.555 27.7264 120.607 29.7398C122.659 31.7532 123.685 34.5703 123.685 38.191C123.685 40.8235 123.237 42.9812 122.341 44.6641C121.467 46.3242 120.113 47.6914 118.452 48.5927C116.751 49.5289 114.638 49.997 112.111 49.997C109.539 49.997 107.413 49.5927 105.735 48.784C104.009 47.9393 102.58 46.6021 101.634 44.9459C100.577 43.196 100.048 41.0047 100.048 38.3722ZM107.097 38.4049C107.097 40.6784 107.522 42.3109 108.372 43.3025C109.223 44.2941 110.389 44.7907 111.872 44.7924C113.387 44.7924 114.559 44.3067 115.389 43.3352C116.218 42.3638 116.633 40.6188 116.633 38.1004C116.633 35.9813 116.201 34.4327 115.335 33.4545C114.47 32.4763 113.295 31.9881 111.81 31.9898C111.165 31.9653 110.522 32.0854 109.93 32.3413C109.338 32.5972 108.812 32.9821 108.393 33.4671C107.527 34.4738 107.096 36.1197 107.097 38.4049Z" fill="black"/>
<path d="M122.951 27.105H130V44.0703H141V49.6071H122.951V27.105Z" fill="black"/>
<path d="M268.23 14.8422V21.2595C268.23 22.6647 267.829 23.741 267.029 24.4881C266.228 25.2441 265.123 25.6221 263.713 25.6221C262.904 25.6221 262.162 25.5109 261.489 25.2886C260.816 25.0751 260.243 24.7682 259.77 24.368L260.629 22.767C261.494 23.4519 262.503 23.7943 263.659 23.7943C264.459 23.7943 265.05 23.5986 265.432 23.2073C265.824 22.8071 266.019 22.1934 266.019 21.3662V20.7925C265.382 21.5574 264.482 21.9399 263.317 21.9399C262.108 21.9399 261.175 21.6063 260.52 20.9393C259.874 20.2633 259.551 19.2938 259.551 18.0308V14.8422H261.762V17.8974C261.762 18.6268 261.939 19.1782 262.294 19.5517C262.649 19.9253 263.149 20.1121 263.795 20.1121C264.477 20.1121 265.018 19.9164 265.419 19.5251C265.819 19.1337 266.019 18.5422 266.019 17.7507V14.8422H268.23ZM278.22 23.3807C277.765 23.6832 277.192 23.9188 276.501 24.0878C275.818 24.2569 275.091 24.3413 274.318 24.3413C273.353 24.3413 272.535 24.2257 271.861 23.9944C271.188 23.7543 270.679 23.4252 270.333 23.0072C269.987 22.5803 269.815 22.0955 269.815 21.553C269.815 21.0549 269.956 20.6146 270.238 20.2322C270.52 19.8497 270.906 19.5651 271.397 19.3783C271.024 19.1826 270.733 18.9158 270.524 18.5778C270.324 18.2399 270.224 17.8618 270.224 17.4438C270.224 16.9368 270.383 16.4743 270.702 16.0563C271.02 15.6383 271.502 15.3048 272.148 15.0557C272.794 14.8066 273.585 14.6821 274.522 14.6821C275.141 14.6821 275.746 14.7444 276.337 14.8689C276.928 14.9846 277.442 15.1447 277.879 15.3492L277.265 17.0035C276.428 16.6211 275.541 16.4299 274.604 16.4299C273.895 16.4299 273.358 16.5366 272.994 16.75C272.639 16.9546 272.462 17.2348 272.462 17.5906C272.462 17.9197 272.58 18.1732 272.817 18.351C273.062 18.52 273.431 18.6045 273.922 18.6045H276.528V20.3122H273.785C273.23 20.3122 272.803 20.4056 272.503 20.5924C272.203 20.7792 272.052 21.0504 272.052 21.4062C272.052 21.7798 272.243 22.0733 272.626 22.2867C273.017 22.4913 273.612 22.5936 274.413 22.5936C274.977 22.5936 275.541 22.5225 276.105 22.3801C276.669 22.229 277.147 22.0199 277.538 21.7531L278.22 23.3807ZM290.419 14.6821C291.547 14.6821 292.424 15.0067 293.052 15.6561C293.68 16.2964 293.994 17.2259 293.994 18.4444V24.1812H291.783V18.5111C291.783 17.853 291.606 17.3593 291.251 17.0302C290.906 16.6923 290.446 16.5232 289.873 16.5232C289.245 16.5232 288.745 16.7011 288.372 17.0569C287.999 17.4038 287.812 17.933 287.812 18.6445V24.1812H285.602V18.5111C285.602 17.853 285.438 17.3593 285.111 17.0302C284.783 16.6923 284.337 16.5232 283.774 16.5232C283.155 16.5232 282.659 16.7011 282.286 17.0569C281.913 17.4038 281.727 17.933 281.727 18.6445V24.1812H279.516V14.8422H281.658V15.9896C281.95 15.5716 282.336 15.2514 282.818 15.029C283.3 14.7978 283.855 14.6821 284.483 14.6821C285.138 14.6821 285.711 14.8022 286.202 15.0423C286.694 15.2736 287.071 15.6116 287.335 16.0563C287.662 15.6116 288.09 15.2736 288.618 15.0423C289.154 14.8022 289.754 14.6821 290.419 14.6821ZM259.418 28.0169H262.673C263.451 28.0169 264.136 28.1636 264.73 28.4571C265.33 28.744 265.794 29.1509 266.122 29.6779C266.456 30.2049 266.623 30.8186 266.623 31.519C266.623 32.2194 266.456 32.8331 266.122 33.3601C265.794 33.8871 265.33 34.2974 264.73 34.5909C264.136 34.8777 263.451 35.0211 262.673 35.0211H259.418V28.0169ZM262.591 33.6903C263.307 33.6903 263.877 33.4969 264.3 33.11C264.73 32.7164 264.945 32.1861 264.945 31.519C264.945 30.8519 264.73 30.325 264.3 29.938C263.877 29.5445 263.307 29.3477 262.591 29.3477H261.076V33.6903H262.591ZM267.761 29.6379H269.357V35.0211H267.761V29.6379ZM268.559 28.8874C268.266 28.8874 268.027 28.804 267.843 28.6373C267.658 28.4705 267.566 28.2637 267.566 28.0169C267.566 27.7701 267.658 27.5633 267.843 27.3965C268.027 27.2297 268.266 27.1464 268.559 27.1464C268.852 27.1464 269.091 27.2264 269.275 27.3865C269.459 27.5466 269.552 27.7467 269.552 27.9869C269.552 28.247 269.459 28.4638 269.275 28.6373C269.091 28.804 268.852 28.8874 268.559 28.8874ZM276.519 29.6379V34.1206C276.519 35.1079 276.256 35.8416 275.731 36.3219C275.205 36.8022 274.438 37.0424 273.428 37.0424C272.896 37.0424 272.391 36.979 271.913 36.8522C271.436 36.7255 271.04 36.5421 270.726 36.3019L271.361 35.1812C271.593 35.368 271.886 35.5148 272.241 35.6215C272.596 35.7349 272.95 35.7916 273.305 35.7916C273.858 35.7916 274.264 35.6682 274.523 35.4214C274.789 35.1812 274.922 34.8143 274.922 34.3207V34.0906C274.506 34.5375 273.926 34.761 273.182 34.761C272.677 34.761 272.214 34.6542 271.791 34.4408C271.374 34.2206 271.043 33.9138 270.798 33.5202C270.552 33.1267 270.429 32.673 270.429 32.1594C270.429 31.6458 270.552 31.1921 270.798 30.7986C271.043 30.405 271.374 30.1015 271.791 29.888C272.214 29.6679 272.677 29.5578 273.182 29.5578C273.981 29.5578 274.588 29.8146 275.004 30.3283V29.6379H276.519ZM273.5 33.4802C273.923 33.4802 274.267 33.3601 274.533 33.12C274.806 32.8732 274.943 32.553 274.943 32.1594C274.943 31.7658 274.806 31.449 274.533 31.2088C274.267 30.962 273.923 30.8386 273.5 30.8386C273.077 30.8386 272.729 30.962 272.456 31.2088C272.183 31.449 272.046 31.7658 272.046 32.1594C272.046 32.553 272.183 32.8732 272.456 33.12C272.729 33.3601 273.077 33.4802 273.5 33.4802ZM278.004 29.6379H279.601V35.0211H278.004V29.6379ZM278.803 28.8874C278.509 28.8874 278.27 28.804 278.086 28.6373C277.902 28.4705 277.81 28.2637 277.81 28.0169C277.81 27.7701 277.902 27.5633 278.086 27.3965C278.27 27.2297 278.509 27.1464 278.803 27.1464C279.096 27.1464 279.335 27.2264 279.519 27.3865C279.703 27.5466 279.795 27.7467 279.795 27.9869C279.795 28.247 279.703 28.4638 279.519 28.6373C279.335 28.804 279.096 28.8874 278.803 28.8874ZM284.399 34.761C284.242 34.8744 284.047 34.9611 283.815 35.0211C283.59 35.0745 283.355 35.1012 283.109 35.1012C282.447 35.1012 281.939 34.9377 281.584 34.6109C281.229 34.284 281.052 33.8037 281.052 33.17V28.4471H282.648V29.7579H284.01V30.9587H282.648V33.15C282.648 33.3768 282.706 33.5536 282.822 33.6803C282.938 33.8004 283.105 33.8604 283.324 33.8604C283.57 33.8604 283.788 33.7937 283.979 33.6603L284.399 34.761ZM290.718 29.6379V35.0211H289.193V34.4008C288.797 34.8677 288.224 35.1012 287.474 35.1012C286.955 35.1012 286.485 34.9878 286.062 34.761C285.645 34.5342 285.318 34.2106 285.079 33.7904C284.84 33.3701 284.721 32.8832 284.721 32.3295C284.721 31.7758 284.84 31.2889 285.079 30.8686C285.318 30.4484 285.645 30.1248 286.062 29.898C286.485 29.6712 286.955 29.5578 287.474 29.5578C288.177 29.5578 288.726 29.7746 289.122 30.2082V29.6379H290.718ZM287.75 33.8204C288.153 33.8204 288.487 33.687 288.753 33.4202C289.019 33.1467 289.152 32.7831 289.152 32.3295C289.152 31.8759 289.019 31.5157 288.753 31.2488C288.487 30.9753 288.153 30.8386 287.75 30.8386C287.341 30.8386 287.003 30.9753 286.737 31.2488C286.471 31.5157 286.338 31.8759 286.338 32.3295C286.338 32.7831 286.471 33.1467 286.737 33.4202C287.003 33.687 287.341 33.8204 287.75 33.8204ZM294.171 35.1012C293.55 35.1012 293.066 34.9411 292.718 34.6209C292.37 34.294 292.196 33.8337 292.196 33.2401V27.5966H293.792V33.15C293.792 33.3768 293.85 33.5536 293.966 33.6803C294.089 33.8004 294.26 33.8604 294.478 33.8604C294.56 33.8604 294.642 33.8504 294.724 33.8304C294.812 33.8104 294.881 33.7871 294.928 33.7604L295 34.9711C294.734 35.0578 294.458 35.1012 294.171 35.1012Z" fill="black"/>
<path d="M213.072 13.8267C213.106 13.8684 213.137 13.9025 213.172 13.9442C213.382 14.1906 213.606 14.4597 213.851 14.7478C213.971 14.8918 214.099 15.0396 214.227 15.1912C214.874 15.953 215.607 16.8172 216.378 17.7192C216.684 18.0793 216.998 18.4469 217.312 18.8146C217.626 19.1823 217.944 19.5537 218.258 19.9213C218.278 19.9441 218.297 19.9668 218.316 19.9895C218.46 20.1563 218.599 20.3231 218.743 20.4861C218.766 20.5126 218.789 20.5429 218.816 20.5695C218.929 20.6983 219.037 20.8272 219.146 20.956C219.216 21.0394 219.285 21.119 219.355 21.2024C219.375 21.2252 219.394 21.2479 219.413 21.2706C219.456 21.3237 219.503 21.3729 219.545 21.4261C219.599 21.4904 219.654 21.5549 219.708 21.6193C219.731 21.6497 219.758 21.6762 219.782 21.7065C219.848 21.7823 219.913 21.8619 219.979 21.9377C220.026 21.9907 220.069 22.0439 220.115 22.0969C220.169 22.1613 220.224 22.2258 220.278 22.2902C220.324 22.347 220.375 22.4002 220.421 22.4569C220.445 22.4835 220.468 22.5138 220.495 22.5403C220.569 22.6275 220.642 22.7147 220.716 22.7981C220.739 22.8246 220.762 22.8512 220.786 22.8777C220.828 22.9307 220.875 22.98 220.917 23.0293C220.964 23.0823 221.007 23.1354 221.053 23.1885C221.076 23.215 221.096 23.2377 221.119 23.2643C221.39 23.5789 221.642 23.8783 221.883 24.155C221.894 24.1663 221.906 24.1815 221.918 24.1929C221.991 24.2763 222.057 24.3558 222.127 24.4355C222.166 24.4809 222.204 24.5264 222.239 24.5681C222.255 24.5871 222.274 24.6098 222.29 24.6288C222.406 24.7614 222.511 24.8865 222.615 25.0077C222.743 25.1556 222.863 25.2958 222.968 25.4171C222.999 25.455 223.026 25.4854 223.053 25.5195L223.057 25.5232C223.17 25.6559 223.27 25.7734 223.352 25.8681C223.352 25.8681 223.352 25.8681 223.356 25.8719C223.395 25.9174 223.433 25.9591 223.464 25.997C223.472 26.0046 223.48 26.0083 223.488 26.0159C223.53 26.0463 223.6 26.05 223.643 26.0159C223.65 26.0083 223.658 26.0046 223.666 25.997C223.693 25.9667 223.724 25.9288 223.759 25.8909C223.782 25.8605 223.809 25.8302 223.836 25.7999C223.898 25.7279 223.968 25.6483 224.042 25.5612C224.069 25.5308 224.092 25.5043 224.116 25.4739C224.123 25.4663 224.127 25.4588 224.135 25.4512C224.174 25.4057 224.216 25.3564 224.259 25.3072C224.259 25.3034 224.263 25.3034 224.263 25.3034C224.298 25.2617 224.336 25.2162 224.375 25.1708C224.402 25.1366 224.433 25.1025 224.464 25.0646C224.573 24.9358 224.689 24.8031 224.813 24.6553C224.829 24.6363 224.844 24.6173 224.864 24.5984C224.914 24.5378 224.972 24.4733 225.026 24.4089C225.077 24.3521 225.127 24.2914 225.178 24.2308C225.352 24.0261 225.538 23.8101 225.732 23.5826C225.771 23.5409 225.806 23.4955 225.844 23.4538C225.856 23.4386 225.872 23.4234 225.883 23.4083C225.937 23.3439 225.996 23.2794 226.05 23.2112C226.108 23.143 226.166 23.0747 226.228 23.0028C226.263 22.9611 226.298 22.9231 226.333 22.8814C226.348 22.8625 226.364 22.8473 226.379 22.8284C226.461 22.7299 226.546 22.6313 226.631 22.5327C226.655 22.5062 226.674 22.4835 226.697 22.4569C226.724 22.4267 226.752 22.3963 226.775 22.366C226.984 22.1234 227.197 21.8733 227.414 21.6155C227.465 21.5549 227.519 21.4943 227.569 21.4337C227.577 21.4261 227.585 21.4146 227.593 21.4071C227.659 21.3275 227.728 21.2479 227.798 21.1683C227.856 21.1039 227.911 21.0357 227.969 20.9712C228.077 20.8461 228.186 20.7173 228.294 20.5884C228.325 20.5505 228.356 20.5126 228.391 20.4747C228.531 20.3117 228.67 20.1487 228.81 19.9858C228.829 19.9668 228.845 19.9441 228.864 19.9252C229.178 19.5575 229.492 19.186 229.81 18.8184C230.124 18.4508 230.438 18.0831 230.744 17.7231C231.512 16.8209 232.248 15.9568 232.896 15.195C233.024 15.0434 233.151 14.8955 233.272 14.7515C233.516 14.4635 233.741 14.1943 233.95 13.948C233.985 13.9063 234.012 13.8722 234.047 13.8343C231.279 11.3707 227.6 9.86597 223.565 9.86597C219.518 9.86597 215.839 11.3669 213.072 13.8267Z" fill="black"/>
<path d="M228.03 32.3569C227.809 32.1598 227.46 32.2167 227.309 32.4706L224.945 36.4882L224.359 37.4775C224.251 37.6593 224.053 37.7731 223.836 37.7731H223.557H223.285H223.278C223.061 37.7731 222.859 37.6593 222.751 37.4736L222.747 37.4699L219.801 32.463C219.653 32.2091 219.301 32.156 219.08 32.3494L216.882 34.2672L213.827 36.9355C216.49 39.0238 219.87 40.2746 223.553 40.2746C227.236 40.2746 230.616 39.0238 233.283 36.9316L232.108 35.9045L228.03 32.3569Z" fill="black"/>
<path d="M211.401 23.6584C210.688 22.4872 209.85 21.1114 209.145 19.9478C209.094 19.8644 209.044 19.781 208.994 19.7014C208.346 21.3729 207.99 23.1846 207.99 25.0759C207.99 27.1453 208.412 29.1125 209.18 30.909L209.773 30.2003L212.959 26.3911C212.963 26.3873 212.99 26.357 213.025 26.3115C213.021 26.3078 213.017 26.3039 213.014 26.2963C212.917 26.1486 212.242 25.0418 211.401 23.6584Z" fill="black"/>
<path d="M223.584 0C209.455 0 198 11.1924 198 25C198 38.8076 209.455 50 223.584 50C237.714 50 249.169 38.8076 249.169 25C249.169 11.1924 237.714 0 223.584 0ZM243.587 38.1822H243.575H234.749C234.737 38.1822 234.721 38.1785 234.71 38.1747C234.706 38.1785 234.706 38.1785 234.702 38.1822L234.698 38.1785C231.675 40.6345 227.79 42.1126 223.553 42.1126C219.317 42.1126 215.432 40.6345 212.413 38.1785H212.409C212.405 38.1747 212.405 38.1747 212.401 38.1709C212.389 38.1747 212.378 38.1785 212.362 38.1785H203.536H203.524C203.349 38.1785 203.256 37.9814 203.365 37.8525L207.85 32.4894C206.738 30.2456 206.113 27.7289 206.113 25.0682C206.113 15.6572 213.921 8.02759 223.553 8.02759C233.186 8.02759 240.993 15.6572 240.993 25.0682C240.993 27.7252 240.369 30.2418 239.261 32.4856L240.963 34.5172L243.746 37.845L243.754 37.8525C243.854 37.9851 243.761 38.1822 243.587 38.1822Z" fill="black"/>
<path d="M237.969 19.9439C237.26 21.1075 236.427 22.4833 235.713 23.6545C234.868 25.0416 234.198 26.1447 234.105 26.2962C234.101 26.3 234.097 26.3038 234.093 26.3076L234.151 26.3796C234.155 26.3834 234.155 26.3872 234.159 26.391L237.931 30.9013C238.694 29.1048 239.117 27.1377 239.117 25.072C239.117 23.1807 238.76 21.3728 238.117 19.7051C238.066 19.7847 238.02 19.8643 237.969 19.9439Z" fill="black"/>
</svg>
