<svg width="112" height="57" viewBox="0 0 112 57" fill="none" xmlns="http://www.w3.org/2000/svg">
<path d="M23.6858 0.071458C30.032 0.071458 36.3828 0.0134405 42.7155 5.18266e-05C51.475 -0.0222626 59.2184 7.16299 56.0884 18.0747C54.9725 21.9619 52.6862 24.7691 52.6862 24.7691C52.6862 24.7691 52.3233 22.1047 49.1025 19.4181C49.1025 19.4181 46.7754 16.9456 42.6202 16.1468C40.6378 15.7674 39.0002 15.7764 32.6767 17.5972C23.8446 20.1411 24.2936 20.5249 21.4313 20.9801C11.7508 22.5153 4.43384 18.2399 1.40814 9.08649C0.727701 7.03356 0.328509 4.92262 0.0563325 2.77597C-0.193163 0.812298 0.423771 -0.00887395 2.61479 0.0268292C9.63694 0.147327 16.6591 0.071458 23.6858 0.071458Z" fill="black"/>
<path d="M42.8856 32.0883C39.7466 32.1641 36.9025 29.4819 36.83 26.3802C36.7529 23.3008 39.4836 20.5294 42.6633 20.4535C45.8023 20.3776 48.6464 23.0598 48.7189 26.1615C48.7961 29.2409 46.0608 32.0124 42.8856 32.0883Z" fill="black"/>
<path d="M28.5168 25.9044C28.4811 26.0501 28.449 26.2077 28.4233 26.3762C28.2664 27.4052 28.3507 28.8249 29.2569 30.438L29.2571 30.4385L29.2632 30.4494C29.2682 30.4584 29.2751 30.4707 29.284 30.4861C29.3018 30.5169 29.3274 30.5602 29.361 30.6142C29.4281 30.7222 29.5274 30.8734 29.6598 31.054C29.9244 31.4146 30.3235 31.8951 30.8668 32.3819C31.9548 33.3571 33.63 34.3644 35.9505 34.4666C36.1138 34.4739 36.2759 34.4825 36.4395 34.4912C37.2691 34.5354 38.1371 34.5816 39.3804 34.4557C40.8648 34.3053 42.8778 33.9119 46.0545 32.9972L46.0545 32.9972C50.4719 31.7249 52.5771 30.9904 53.9333 30.5172L53.9422 30.5141C55.2831 30.0463 55.8532 29.8482 57.2401 29.6276L57.1768 29.2295L57.2401 29.6276C66.6844 28.1255 74.8059 33.8686 76.7008 41.1489L76.7061 41.1691L76.7128 41.1882L76.7128 41.1884L76.7129 41.1885L76.713 41.1888L76.7142 41.1922L76.7205 41.2111C76.7263 41.2287 76.7352 41.2564 76.7467 41.2938C76.7697 41.3684 76.8027 41.4814 76.8409 41.6291C76.9174 41.9246 77.0147 42.3581 77.0943 42.9002C77.2536 43.9857 77.3411 45.4995 77.0545 47.2107C76.5699 50.1028 74.7625 52.4356 73.032 54.0649C72.171 54.8756 71.3401 55.5015 70.7251 55.9243C70.6074 56.0052 70.4977 56.0786 70.3974 56.1443C70.3706 55.9321 70.3337 55.6862 70.2828 55.4141C70.1091 54.4866 69.77 53.2432 69.1052 51.9943C68.4393 50.7433 67.4429 49.48 65.9554 48.5309C64.4655 47.5802 62.5112 46.9629 59.9604 46.9629H59.9602C55.1983 46.9651 52.6424 47.4235 50.5836 47.9864C49.9899 48.1488 49.4488 48.3158 48.9156 48.4804C47.5922 48.8889 46.3175 49.2824 44.4083 49.5518C41.594 49.947 39.9495 50.0321 38.7848 49.988C37.9214 49.9552 37.3249 49.8534 36.6759 49.7425C36.446 49.7032 36.2094 49.6628 35.952 49.6239L35.9518 49.6239C31.7004 48.9841 27.5923 47.1548 24.988 44.2358C22.4083 41.3444 21.2619 37.3404 22.9786 32.2022L28.5168 25.9044ZM28.5168 25.9044C28.0714 26.1312 27.5205 26.4495 26.9331 26.8762C25.4921 27.9231 23.8443 29.6131 22.9787 32.2021L28.5168 25.9044Z" fill="#FFB600"/>
<path d="M28.5168 25.9044C28.4811 26.0501 28.449 26.2077 28.4233 26.3762C28.2664 27.4052 28.3507 28.8249 29.2569 30.438L29.2571 30.4385L29.2632 30.4494C29.2682 30.4584 29.2751 30.4707 29.284 30.4861C29.3018 30.5169 29.3274 30.5602 29.361 30.6142C29.4281 30.7222 29.5274 30.8734 29.6598 31.054C29.9244 31.4146 30.3235 31.8951 30.8668 32.3819C31.9548 33.3571 33.63 34.3644 35.9505 34.4666C36.1138 34.4739 36.2759 34.4825 36.4395 34.4912C37.2691 34.5354 38.1371 34.5816 39.3804 34.4557C40.8648 34.3053 42.8778 33.9119 46.0545 32.9972L46.0545 32.9972C50.4719 31.7249 52.5771 30.9904 53.9333 30.5172L53.9422 30.5141C55.2831 30.0463 55.8532 29.8482 57.2401 29.6276L57.1768 29.2295L57.2401 29.6276C66.6844 28.1255 74.8059 33.8686 76.7008 41.1489L76.7061 41.1691L76.7128 41.1882L76.7128 41.1884L76.7129 41.1885L76.713 41.1888L76.7142 41.1922L76.7205 41.2111C76.7263 41.2287 76.7352 41.2564 76.7467 41.2938C76.7697 41.3684 76.8027 41.4814 76.8409 41.6291C76.9174 41.9246 77.0147 42.3581 77.0943 42.9002C77.2536 43.9857 77.3411 45.4995 77.0545 47.2107C76.5699 50.1028 74.7625 52.4356 73.032 54.0649C72.171 54.8756 71.3401 55.5015 70.7251 55.9243C70.6074 56.0052 70.4977 56.0786 70.3974 56.1443C70.3706 55.9321 70.3337 55.6862 70.2828 55.4141C70.1091 54.4866 69.77 53.2432 69.1052 51.9943C68.4393 50.7433 67.4429 49.48 65.9554 48.5309C64.4655 47.5802 62.5112 46.9629 59.9604 46.9629H59.9602C55.1983 46.9651 52.6424 47.4235 50.5836 47.9864C49.9899 48.1488 49.4488 48.3158 48.9156 48.4804C47.5922 48.8889 46.3175 49.2824 44.4083 49.5518C41.594 49.947 39.9495 50.0321 38.7848 49.988C37.9214 49.9552 37.3249 49.8534 36.6759 49.7425C36.446 49.7032 36.2094 49.6628 35.952 49.6239L35.9518 49.6239C31.7004 48.9841 27.5923 47.1548 24.988 44.2358C22.4083 41.3444 21.2619 37.3404 22.9786 32.2022L28.5168 25.9044ZM28.5168 25.9044C28.0714 26.1312 27.5205 26.4495 26.9331 26.8762C25.4921 27.9231 23.8443 29.6131 22.9787 32.2021L28.5168 25.9044Z" stroke="black"/>
<path d="M28.5168 25.9044C28.4811 26.0501 28.449 26.2077 28.4233 26.3762C28.2664 27.4052 28.3507 28.8249 29.2569 30.438L29.2571 30.4385L29.2632 30.4494C29.2682 30.4584 29.2751 30.4707 29.284 30.4861C29.3018 30.5169 29.3274 30.5602 29.361 30.6142C29.4281 30.7222 29.5274 30.8734 29.6598 31.054C29.9244 31.4146 30.3235 31.8951 30.8668 32.3819C31.9548 33.3571 33.63 34.3644 35.9505 34.4666C36.1138 34.4739 36.2759 34.4825 36.4395 34.4912C37.2691 34.5354 38.1371 34.5816 39.3804 34.4557C40.8648 34.3053 42.8778 33.9119 46.0545 32.9972L46.0545 32.9972C50.4719 31.7249 52.5771 30.9904 53.9333 30.5172L53.9422 30.5141C55.2831 30.0463 55.8532 29.8482 57.2401 29.6276L57.1768 29.2295L57.2401 29.6276C66.6844 28.1255 74.8059 33.8686 76.7008 41.1489L76.7061 41.1691L76.7128 41.1882L76.7128 41.1884L76.7129 41.1885L76.713 41.1888L76.7142 41.1922L76.7205 41.2111C76.7263 41.2287 76.7352 41.2564 76.7467 41.2938C76.7697 41.3684 76.8027 41.4814 76.8409 41.6291C76.9174 41.9246 77.0147 42.3581 77.0943 42.9002C77.2536 43.9857 77.3411 45.4995 77.0545 47.2107C76.5699 50.1028 74.7625 52.4356 73.032 54.0649C72.171 54.8756 71.3401 55.5015 70.7251 55.9243C70.6074 56.0052 70.4977 56.0786 70.3974 56.1443C70.3706 55.9321 70.3337 55.6862 70.2828 55.4141C70.1091 54.4866 69.77 53.2432 69.1052 51.9943C68.4393 50.7433 67.4429 49.48 65.9554 48.5309C64.4655 47.5802 62.5112 46.9629 59.9604 46.9629H59.9602C55.1983 46.9651 52.6424 47.4235 50.5836 47.9864C49.9899 48.1488 49.4488 48.3158 48.9156 48.4804C47.5922 48.8889 46.3175 49.2824 44.4083 49.5518C41.594 49.947 39.9495 50.0321 38.7848 49.988C37.9214 49.9552 37.3249 49.8534 36.6759 49.7425C36.446 49.7032 36.2094 49.6628 35.952 49.6239L35.9518 49.6239C31.7004 48.9841 27.5923 47.1548 24.988 44.2358C22.4083 41.3444 21.2619 37.3404 22.9786 32.2022L28.5168 25.9044ZM28.5168 25.9044C28.0714 26.1312 27.5205 26.4495 26.9331 26.8762C25.4921 27.9231 23.8443 29.6131 22.9787 32.2021L28.5168 25.9044Z" stroke="url(#paint0_linear)"/>
<path d="M82.9216 13.9913C82.7492 6.72568 89.1998 0.183085 96.7028 0.00457C104.115 -0.173945 110.833 6.15889 111.001 13.4825C111.173 20.7481 104.723 27.2907 97.2199 27.4692C89.8122 27.6477 83.094 21.3149 82.9216 13.9913Z" fill="black"/>
<path d="M76.1368 0.00457C68.6338 0.183085 62.1832 6.72568 62.3556 13.9913C62.5279 21.3149 69.2461 27.6477 76.6539 27.4692C84.1569 27.2907 90.6075 20.7481 90.4351 13.4825C90.2673 6.15889 83.549 -0.173945 76.1368 0.00457Z" fill="#FFB600"/>
<defs>
<linearGradient id="paint0_linear" x1="49.7026" y1="24.9699" x2="49.7026" y2="56.9956" gradientUnits="userSpaceOnUse">
<stop stop-color="white"/>
<stop offset="1" stop-color="white" stop-opacity="0"/>
</linearGradient>
</defs>
</svg>
