<?xml version="1.0" standalone="no"?>
<!DOCTYPE svg PUBLIC "-//W3C//DTD SVG 1.1//EN" "http://www.w3.org/Graphics/SVG/1.1/DTD/svg11.dtd" >
<svg xmlns="http://www.w3.org/2000/svg" xmlns:xlink="http://www.w3.org/1999/xlink" version="1.1">
<metadata>
Created by FontForge 20200427 at Fri Jul  1 22:03:23 2011
 By www
Digitised data (c) 2002 Monotype Imaging, Inc. All Rights Reserved.
</metadata>
<defs>
<font id="SceneW01-Black" horiz-adv-x="659" >
  <font-face 
    font-family="SceneW01-Black"
    font-weight="400"
    font-stretch="normal"
    units-per-em="1000"
    panose-1="2 11 9 4 3 5 4 2 2 4"
    ascent="800"
    descent="-200"
    x-height="537"
    cap-height="721"
    bbox="-60 -249 1283 1002"
    underline-thickness="20"
    underline-position="-153"
    unicode-range="U+000D-2122"
  />
<missing-glyph horiz-adv-x="0" 
 />
    <glyph glyph-name=".notdef" horiz-adv-x="0" 
 />
    <glyph glyph-name="glyph1" horiz-adv-x="0" 
 />
    <glyph glyph-name="uni000D" unicode="&#xd;" horiz-adv-x="0" 
 />
    <glyph glyph-name="space" unicode=" " horiz-adv-x="233" 
 />
    <glyph glyph-name="exclam" unicode="!" horiz-adv-x="284" 
d="M209 227h-133l-23 182v370h177v-371zM231 11q0 -11 -10 -11h-158q-10 0 -10 11v155q0 8 2 10t8 2h158q6 0 8 -2t2 -10v-155z" />
    <glyph glyph-name="quotedbl" unicode="&#x22;" horiz-adv-x="488" 
d="M388 487q-2 -9 -5 -11.5t-11 -2.5h-79q-8 0 -10 2.5t-2 11.5v234h145zM187 487q-2 -9 -5 -11.5t-11 -2.5h-79q-8 0 -10 2.5t-2 11.5v234h145z" />
    <glyph glyph-name="numbersign" unicode="#" horiz-adv-x="587" 
d="M419 213l-23 -174h-98l23 174h-103l-23 -174h-98l23 174h-77v100h90l14 100h-104v100h117l23 173h98l-22 -173h102l23 173h98l-22 -173h90v-100h-104l-13 -100h117v-100h-131zM245 413l-14 -100h103l14 100h-103z" />
    <glyph glyph-name="dollar" unicode="$" 
d="M586 251q0 -71 -45 -122t-143 -68v-131h-139v129q-95 14 -140.5 62t-45.5 142h149q1 -21 6 -37t16.5 -26.5t31.5 -15.5t50 -5q29 0 48 5.5t30 14.5t15 21t4 24q0 24 -8.5 38t-34.5 18l-148 22q-31 4 -58 17t-47.5 35t-32 54t-11.5 74q0 149 176 174v107h139v-107
q88 -14 128.5 -63t40.5 -124h-148q0 17 -3.5 30.5t-13.5 22.5t-27.5 14t-45.5 5q-51 0 -68.5 -13.5t-17.5 -39.5q0 -23 9.5 -32.5t23.5 -11.5l131 -19q43 -6 76.5 -18.5t56 -35t34.5 -56.5t12 -84z" />
    <glyph glyph-name="percent" unicode="%" horiz-adv-x="954" 
d="M302 -15h-128l475 752h128zM364 519q0 -40 -4.5 -79.5t-21 -71.5t-48 -52t-85.5 -20t-86 20t-48.5 52t-21 71.5t-4.5 79.5q0 39 5.5 77.5t22.5 68.5t48.5 49t83.5 19q51 0 82.5 -19t48.5 -49t22.5 -68.5t5.5 -77.5zM253 519q0 37 -2.5 61.5t-8 39.5t-14.5 21t-23 6
t-23.5 -6t-15 -21t-8 -39.5t-2.5 -61.5q0 -77 10.5 -107t38.5 -30q27 0 37.5 30t10.5 107zM909 214q0 -40 -4.5 -79.5t-21 -71.5t-48 -52t-85.5 -20t-86 20t-48.5 52t-21 71.5t-4.5 79.5q0 39 5.5 77.5t22.5 68.5t48.5 49t83.5 19q51 0 82.5 -19t48.5 -49t22.5 -68.5
t5.5 -77.5zM798 214q0 37 -2.5 61.5t-8 39.5t-14.5 21t-23 6t-23.5 -6t-15 -21t-8 -39.5t-2.5 -61.5q0 -77 10.5 -107t38.5 -30q27 0 37.5 30t10.5 107z" />
    <glyph glyph-name="ampersand" unicode="&#x26;" horiz-adv-x="711" 
d="M542 -22l-54 57q-35 -23 -78.5 -36.5t-92.5 -13.5q-60 0 -114 12t-94.5 38.5t-64 69t-23.5 103.5v16q0 67 33.5 107t84.5 66l-3 4q-30 41 -47 74t-17 69v8q0 53 23 88.5t58.5 57t77.5 30.5t80 9t80 -9t76.5 -30.5t57 -57t22.5 -88.5v-8q0 -63 -27.5 -105.5t-95.5 -71.5
l-36 -15l93 -95q5 11 8 30.5t3 29.5v26h152v-26q0 -44 -13.5 -90t-36.5 -85l126 -129zM381 552q0 11 -2.5 22t-10 19.5t-21.5 14t-36 5.5q-23 0 -37 -5.5t-22 -14t-10.5 -19.5t-2.5 -22v-8q0 -20 6 -36t26 -36l10 -10l58 26q26 12 34 25.5t8 30.5v8zM243 288q-2 -1 -7 -4
t-6 -5q-14 -10 -21.5 -21t-7.5 -34v-16q0 -37 26.5 -60t89.5 -23q36 0 66 19z" />
    <glyph glyph-name="quotesingle" unicode="'" horiz-adv-x="255" 
d="M173 487q-2 -9 -5 -11.5t-11 -2.5h-79q-8 0 -10 2.5t-2 11.5v234h145z" />
    <glyph glyph-name="parenleft" unicode="(" horiz-adv-x="360" 
d="M333 -163q-83 0 -136.5 38t-84.5 102t-43 149t-12 178t12 178t43 149t84.5 102t136.5 38v-120q-51 0 -72.5 -30t-31.5 -81q-9 -47 -10.5 -111.5t-1.5 -124.5t1.5 -124.5t10.5 -111.5q10 -51 31.5 -81t72.5 -30v-120v0z" />
    <glyph glyph-name="parenright" unicode=")" horiz-adv-x="360" 
d="M303 304q0 -93 -12 -178t-43 -149t-84.5 -102t-136.5 -38v120q51 0 72.5 30t31.5 81q9 47 10.5 111.5t1.5 124.5t-2 124.5t-11 111.5q-10 51 -31.5 81t-72.5 30v120q83 0 137 -38t85 -102t43 -149t12 -178z" />
    <glyph glyph-name="asterisk" unicode="*" horiz-adv-x="377" 
d="M359 569q6 -19 -12 -22l-95 -11l72 -65q14 -12 -4 -25l-66 -47q-17 -12 -24 4l-40 87l-40 -89q-7 -16 -24 -4l-66 48q-18 13 -4 25l71 64l-96 11q-18 1 -12 22l25 77q6 20 22 11l85 -48l-21 96q-4 18 17 18h81q22 0 18 -18l-19 -94l84 49q9 5 14 1t8 -13l26 -77v0z" />
    <glyph glyph-name="plus" unicode="+" 
d="M398 294v-217h-135v217h-216v134h216v215h135v-215h215v-134h-215z" />
    <glyph glyph-name="comma" unicode="," horiz-adv-x="294" 
d="M236 21q0 -32 -11.5 -61.5t-31 -55.5t-46 -47t-57.5 -36l-51 57q40 28 56.5 54.5t16.5 67.5h-44q-6 0 -8 1t-2 8v154q0 15 11 15h156q11 0 11 -15v-142v0z" />
    <glyph glyph-name="hyphen" unicode="-" horiz-adv-x="343" 
d="M33 246v147h277v-147h-277z" />
    <glyph glyph-name="period" unicode="." horiz-adv-x="294" 
d="M236 11q0 -11 -10 -11h-158q-10 0 -10 11v155q0 8 2 10t8 2h158q6 0 8 -2t2 -10v-155v0z" />
    <glyph glyph-name="slash" unicode="/" horiz-adv-x="497" 
d="M151 -15h-123l319 752h123z" />
    <glyph glyph-name="zero" unicode="0" 
d="M601 369q0 -46 -3 -92t-12.5 -89t-27.5 -80t-48.5 -64.5t-74.5 -43t-105 -15.5t-105.5 15.5t-74.5 43t-48 64.5t-28 80t-13 89t-3 92q0 68 9.5 134t38 118t82 84t142.5 32q88 0 141.5 -32t82.5 -84t38 -118t9 -134zM424 369q0 67 -4.5 112t-15 72t-29 38.5t-45.5 11.5
t-45.5 -11.5t-29.5 -38.5t-15.5 -72t-4.5 -112q0 -71 4.5 -119t16 -77t29.5 -42t45 -13t45 13t29 42t15.5 77t4.5 119z" />
    <glyph glyph-name="one" unicode="1" 
d="M95 0v140h151v406q0 5 2.5 11t5.5 12l-159 -31v137l327 63v-598h151v-140h-478z" />
    <glyph glyph-name="two" unicode="2" 
d="M593 523q0 -42 -11.5 -74t-34.5 -60t-57 -55.5t-80 -60.5q-34 -24 -58 -41.5t-41 -33t-28.5 -30t-20.5 -32.5h174v65h153v-201h-533q0 81 21.5 140.5t56 104.5t77.5 78t85 62q34 24 57 41t37 32t19.5 30t5.5 35q0 39 -19.5 60t-62.5 21q-60 0 -90 -29.5t-33 -89.5h-149
q1 55 18 101.5t50.5 80t84 52t119.5 18.5q129 0 194.5 -54t65.5 -160z" />
    <glyph glyph-name="three" unicode="3" 
d="M609 220q0 -59 -23 -103t-61.5 -73.5t-89.5 -44t-108 -14.5q-44 0 -85.5 8t-78.5 27.5t-69 52t-56 81.5l130 59q17 -29 33.5 -47.5t35.5 -29t40.5 -15t48.5 -4.5q54 0 80.5 26.5t26.5 75.5q0 39 -22 66t-67 27h-96l-39 126h131q43 0 61 27t18 62q0 37 -22 58t-68 21
q-26 0 -48.5 -4t-41 -14t-35 -27.5t-30.5 -43.5l-129 57q25 49 57.5 81t70 50t78.5 25t84 7q71 0 120.5 -16.5t80.5 -44t45 -64.5t14 -79q0 -52 -26.5 -92.5t-64.5 -59.5q50 -21 77.5 -64t27.5 -97z" />
    <glyph glyph-name="four" unicode="4" 
d="M555 167v-167h-175v167h-343v128l364 426h154v-413h76v-141h-76zM230 308h150v148q0 8 2 15.5t8 19.5z" />
    <glyph glyph-name="five" unicode="5" 
d="M605 242q0 -56 -17 -103t-51.5 -81.5t-87 -53.5t-124.5 -19q-44 0 -86 8t-79.5 27.5t-69.5 52t-56 81.5l130 59q17 -29 34 -47.5t35.5 -29t40.5 -15t49 -4.5q30 0 50 9.5t32.5 25.5t17.5 38t5 47q0 54 -27 82.5t-94 28.5q-20 0 -43.5 -2t-47 -6t-44 -8.5t-35.5 -10.5
l-57 53l42 347h478l-39 -140h-302l-14 -110q20 4 45 6t41 2q62 0 112.5 -13.5t86.5 -42t55.5 -73.5t19.5 -108z" />
    <glyph glyph-name="six" unicode="6" 
d="M601 255q0 -57 -14.5 -106.5t-47 -86t-84.5 -57t-128 -20.5t-128.5 20.5t-85 56.5t-47 85.5t-14.5 107.5v114q0 42 3 85.5t12.5 84.5t28.5 77t51 63t79 42.5t114 15.5q36 0 71.5 -6t68.5 -19.5t62.5 -35t53.5 -53.5l-105 -91q-33 35 -66 52.5t-85 17.5q-109 0 -115 -134
q23 12 52.5 19t55.5 7q135 0 201.5 -62t66.5 -177zM425 255q0 59 -22 86t-76 27q-47 0 -74.5 -25.5t-27.5 -87.5q0 -78 26 -108t76 -30q53 0 75.5 31t22.5 107z" />
    <glyph glyph-name="seven" unicode="7" 
d="M272 0h-202l322 558q9 14 27 25h-204v-76h-153v214h549v-122z" />
    <glyph glyph-name="eight" unicode="8" 
d="M610 224q0 -56 -15.5 -100t-49 -75t-86 -47.5t-126.5 -16.5t-126.5 16.5t-86 47.5t-49 75t-15.5 100q0 32 8 56.5t21 43t29.5 32t32.5 24.5q-30 17 -55 54.5t-25 87.5q0 113 68.5 164t198.5 51t197.5 -51t67.5 -164q0 -50 -25 -87.5t-55 -54.5q16 -11 32.5 -24.5
t29.5 -32t21 -43t8 -56.5zM427 522q0 45 -23.5 64.5t-70.5 19.5t-70.5 -19.5t-23.5 -64.5q0 -42 16 -61t42 -19h71q26 0 42.5 19t16.5 61zM434 224q0 39 -17 65.5t-52 26.5h-64q-35 0 -52.5 -27t-17.5 -65q0 -60 24 -83.5t78 -23.5t77.5 23.5t23.5 83.5z" />
    <glyph glyph-name="nine" unicode="9" 
d="M602 354q0 -42 -3 -85.5t-12.5 -84.5t-28.5 -77.5t-51 -63.5t-79.5 -42.5t-113.5 -15.5q-71 0 -138.5 26t-115.5 90l101 87q16 -18 32.5 -31t34.5 -22t39 -13.5t47 -4.5q110 0 116 136q-23 -12 -52.5 -18t-55.5 -6q-135 0 -202 61.5t-67 176.5q0 57 14.5 106.5t47 86
t84.5 57t128 20.5t128.5 -20.5t85 -56.5t47 -85.5t14.5 -107.5v-113zM430 467q0 78 -26.5 108t-76.5 30q-53 0 -75 -31t-22 -107q0 -59 21.5 -85.5t75.5 -26.5q47 0 75 25t28 87z" />
    <glyph glyph-name="colon" unicode=":" horiz-adv-x="294" 
d="M236 370q0 -11 -10 -11h-158q-10 0 -10 11v155q0 8 2 10t8 2h158q6 0 8 -2t2 -10v-155zM236 11q0 -11 -10 -11h-158q-10 0 -10 11v155q0 8 2 10t8 2h158q6 0 8 -2t2 -10v-155z" />
    <glyph glyph-name="semicolon" unicode=";" horiz-adv-x="294" 
d="M236 370q0 -11 -10 -11h-158q-10 0 -10 11v155q0 8 2 10t8 2h158q6 0 8 -2t2 -10v-155zM236 21q0 -32 -11.5 -61.5t-31 -55.5t-46 -47t-57.5 -36l-51 57q40 28 56.5 54.5t16.5 67.5h-44q-6 0 -8 1t-2 8v154q0 15 11 15h156q11 0 11 -15v-142z" />
    <glyph glyph-name="less" unicode="&#x3c;" 
d="M352 80l-224 280l224 280h180l-226 -280l226 -280h-180z" />
    <glyph glyph-name="equal" unicode="=" 
d="M82 423v140h496v-140h-496zM82 159v140h496v-140h-496z" />
    <glyph glyph-name="greater" unicode="&#x3e;" 
d="M307 80h-179l225 280l-225 280h179l225 -280z" />
    <glyph glyph-name="question" unicode="?" horiz-adv-x="584" 
d="M546 574q0 -32 -7.5 -57.5t-21.5 -48t-35.5 -44t-49.5 -45.5q-14 -11 -29 -23t-28.5 -26t-22 -30t-8.5 -36v-49h-155v49q0 36 6 63t19 48.5t32.5 41t45.5 41.5t42 37t25 27t12 24t3 28q0 49 -18.5 70.5t-68.5 21.5q-56 0 -77 -26t-22 -87h-152q0 53 11.5 97.5t39.5 77
t76.5 50.5t123.5 18q69 0 118.5 -15t80.5 -43.5t45.5 -69.5t14.5 -94zM356 11q0 -11 -10 -11h-158q-10 0 -10 11v155q0 8 2 10t8 2h158q6 0 8 -2t2 -10v-155z" />
    <glyph glyph-name="at" unicode="@" horiz-adv-x="985" 
d="M935 314q0 -55 -15.5 -106.5t-46.5 -91t-77.5 -63.5t-107.5 -24h-131l-8 61q-43 -41 -80.5 -58.5t-85.5 -17.5q-68 0 -109.5 45t-41.5 138q0 82 24.5 139t66 92.5t96.5 51.5t117 16q39 0 85 -6.5t83 -16.5q9 -18 14.5 -41.5t5.5 -49.5q0 -18 -3 -36l-34 -231h15
q32 0 57 15.5t42 42.5t26 63.5t9 77.5q0 75 -27 127.5t-71 86.5t-100.5 49.5t-116.5 15.5q-65 0 -131.5 -20.5t-120.5 -63.5t-88 -109.5t-34 -157.5q0 -85 25.5 -146t68.5 -100.5t100 -58t120 -18.5q53 0 108 11.5t106 34.5l40 -65q-65 -28 -133 -43t-134 -15
q-80 0 -152.5 23t-127.5 72t-87.5 124.5t-32.5 180.5q0 107 39 188t104 135.5t150 82t178 27.5q85 0 161 -22.5t132.5 -68t89.5 -113t33 -157.5zM571 367q0 8 -0.5 17t-1.5 18q-13 2 -20.5 2.5t-16.5 0.5q-77 0 -109 -55t-32 -153q0 -45 10.5 -63.5t35.5 -18.5t53 21t58 47
l21 152q2 8 2 16v16z" />
    <glyph glyph-name="A" unicode="A" horiz-adv-x="735" 
d="M538 0l-55 145h-239l-55 -145h-180l279 721h161l278 -721h-189zM372 445q-5 12 -8 31q-2 -8 -4.5 -16.5t-4.5 -14.5l-57 -155h130z" />
    <glyph glyph-name="B" unicode="B" horiz-adv-x="662" 
d="M636 227q0 -59 -20.5 -102t-59 -71t-93 -41t-122.5 -13h-291v721h291q134 0 198.5 -50.5t64.5 -152.5q0 -38 -18.5 -74t-53.5 -56q52 -23 78 -65t26 -96zM421 513q0 31 -17 50t-65 19h-110v-140h114q43 0 60.5 19.5t17.5 51.5zM452 227q0 42 -24.5 62t-84.5 20h-114v-170
h110q34 0 56 6.5t35 18.5t17.5 28t4.5 35z" />
    <glyph glyph-name="C" unicode="C" horiz-adv-x="685" 
d="M663 173q-17 -40 -41.5 -74.5t-60.5 -59.5t-84.5 -39.5t-114.5 -14.5q-102 0 -165.5 32.5t-99.5 85.5t-48.5 120.5t-12.5 137.5q0 82 15.5 151t53 119t100.5 78t157 28q73 0 127.5 -19t90.5 -54t55.5 -83.5t23.5 -107.5h-166q-9 62 -39 88t-92 26q-44 0 -71.5 -13
t-43.5 -40.5t-21.5 -70.5t-5.5 -102q0 -55 5 -97t20.5 -71t43.5 -44t73 -15q28 0 51.5 6t43 20.5t36.5 37.5t32 56l138 -81v0z" />
    <glyph glyph-name="D" unicode="D" horiz-adv-x="701" 
d="M669 369q0 -74 -19.5 -140.5t-64 -117.5t-116 -81t-174.5 -30h-245v721h245q101 0 172 -27t116 -74.5t65.5 -112t20.5 -138.5zM485 369q0 106 -44 156t-146 50h-65v-430h65q100 0 145 55t45 169z" />
    <glyph glyph-name="E" unicode="E" horiz-adv-x="613" 
d="M50 0v721h524v-148h-344v-124h314l-46 -149h-273q2 -5 3.5 -9t1.5 -10v-133h344v-148h-524z" />
    <glyph glyph-name="F" unicode="F" horiz-adv-x="578" 
d="M510 573h-282v-132h253v-146h-257q2 -5 3 -9.5t1 -9.5v-276h-178v721h508z" />
    <glyph glyph-name="G" unicode="G" horiz-adv-x="731" 
d="M681 93q-60 -46 -131.5 -77t-163.5 -31q-186 0 -268 95t-82 281q0 87 18 156.5t59 118t107.5 75t164.5 26.5q73 0 127 -19.5t90 -54t55.5 -82t23.5 -103.5h-168q-3 24 -11.5 44t-24 34.5t-38 22.5t-54.5 8q-46 0 -77.5 -11t-51 -37t-28 -69.5t-8.5 -108.5q0 -66 9 -109.5
t28.5 -70t51 -37t77.5 -10.5q32 0 63 9.5t51 22.5v76q0 5 1 9.5t3 9.5h-115l-40 141h332v-309v0z" />
    <glyph glyph-name="H" unicode="H" horiz-adv-x="733" 
d="M503 0v300h-273v-300h-180v721h180v-266h273v266h180v-721h-180z" />
    <glyph glyph-name="I" unicode="I" horiz-adv-x="280" 
d="M50 0v721h180v-721h-180z" />
    <glyph glyph-name="J" unicode="J" horiz-adv-x="491" 
d="M429 223q0 -123 -62.5 -180.5t-178.5 -57.5q-51 0 -93.5 11.5t-87.5 44.5l90 124q23 -17 43.5 -24t47.5 -7q35 0 48.5 20.5t13.5 68.5v498h179v-498v0z" />
    <glyph glyph-name="K" unicode="K" horiz-adv-x="685" 
d="M446 0l-186 239q-5 5 -6.5 13.5t-2.5 18.5l-21 -20v-251h-180v721h180v-243l216 243h230l-311 -328l314 -393h-233z" />
    <glyph glyph-name="L" unicode="L" horiz-adv-x="548" 
d="M50 0v721h180v-565h286v-156h-466z" />
    <glyph glyph-name="M" unicode="M" horiz-adv-x="850" 
d="M631 0l-27 336q-2 15 0 30t4 29l-115 -249h-137l-115 249q2 -14 4 -29t0 -30l-27 -336h-172l57 721h153l156 -330q6 -12 8 -23t4 -30q2 19 4.5 30t8.5 23l156 330h153l57 -721h-172z" />
    <glyph glyph-name="N" unicode="N" horiz-adv-x="743" 
d="M537 0l-318 420q3 -10 5.5 -20t2.5 -21v-379h-177v721h154l320 -420q-4 12 -6 22.5t-2 24.5v373h177v-721h-156z" />
    <glyph glyph-name="O" unicode="O" horiz-adv-x="734" 
d="M697 369q0 -77 -13.5 -146.5t-50.5 -122t-101 -84t-166 -31.5t-166 31.5t-100.5 84.5t-50 122.5t-13.5 145.5q0 69 13.5 135t50 118t101 83.5t165.5 31.5t165.5 -31.5t101 -83.5t50.5 -118t14 -135zM513 369q0 59 -7.5 100.5t-25 67.5t-45.5 38t-69 12t-69 -11.5
t-45 -37.5t-24 -67.5t-7 -101.5q0 -67 7.5 -112t24.5 -72.5t44.5 -39t68.5 -11.5t69 12t45.5 39.5t25 72.5t7.5 111z" />
    <glyph glyph-name="P" unicode="P" horiz-adv-x="639" 
d="M607 484q0 -115 -71 -181t-220 -66h-95q4 -5 6.5 -13.5t2.5 -14.5v-209h-180v721h266q146 0 218.5 -61t72.5 -176zM424 484q0 53 -25 74.5t-83 21.5h-86v-202h86q57 0 82.5 24.5t25.5 81.5z" />
    <glyph glyph-name="Q" unicode="Q" horiz-adv-x="732" 
d="M636 -146l-389 137q-63 22 -103.5 59t-64.5 85.5t-33.5 107t-9.5 123.5q0 69 13.5 136t50 119t101 84t165.5 32t165.5 -32t101 -84t50.5 -119t14 -136q0 -48 -4.5 -94.5t-18.5 -88.5t-39 -79t-66 -67q20 0 32 -1t23 -4l88 -27zM514 366q0 60 -7.5 102t-25 68.5t-46 38.5
t-69.5 12t-69 -12t-45 -38.5t-24 -68.5t-7 -102q0 -66 7.5 -111.5t24.5 -73.5t44.5 -40.5t68.5 -12.5t69 12.5t45.5 40.5t25.5 73.5t8 111.5z" />
    <glyph glyph-name="R" unicode="R" horiz-adv-x="661" 
d="M437 0l-157 240q-8 12 -10 26h-40v-266h-180v721h263q149 0 218.5 -61t69.5 -168q0 -152 -139 -203l189 -289h-214zM417 492q0 38 -22.5 63t-81.5 25h-83v-174h83q31 0 51 6.5t32 18.5t16.5 27.5t4.5 33.5z" />
    <glyph glyph-name="S" unicode="S" horiz-adv-x="651" 
d="M623 221q0 -115 -78 -175.5t-219 -60.5q-113 0 -185 45t-114 127l142 69q26 -46 61.5 -70t95.5 -24q35 0 58 6t36.5 17t19 26t5.5 34q0 30 -14 46.5t-53 23.5q-38 6 -77.5 11.5t-76.5 14t-69.5 23t-56.5 38.5t-38 60.5t-14 89.5q0 52 21.5 92.5t59.5 67.5t89.5 41
t112.5 14q105 0 171.5 -35t111.5 -108l-143 -70q-23 35 -54.5 52t-85.5 17q-57 0 -81.5 -17.5t-24.5 -46.5q0 -28 12 -40.5t38 -17.5q40 -7 81.5 -12.5t80.5 -14.5t73.5 -24t60 -40.5t40 -64t14.5 -94.5z" />
    <glyph glyph-name="T" unicode="T" horiz-adv-x="651" 
d="M417 574v-574h-181v574h-207v147h594v-147h-206z" />
    <glyph glyph-name="U" unicode="U" horiz-adv-x="737" 
d="M689 304q0 -84 -24 -144t-67 -99t-102 -57.5t-129 -18.5t-128.5 18.5t-101 57.5t-66 99t-23.5 144v417h180v-417q0 -48 9 -80.5t27 -52.5t44 -28.5t59 -8.5q34 0 60 8.5t44 28.5t27 52.5t9 80.5v417h182v-417v0z" />
    <glyph glyph-name="V" unicode="V" horiz-adv-x="730" 
d="M448 0h-168l-271 721h197l148 -429q5 -16 6 -29t3 -33q2 20 4 33t7 29l148 429h197z" />
    <glyph glyph-name="W" unicode="W" horiz-adv-x="916" 
d="M729 0h-172l-88 348q-2 10 -5 27.5t-5 29.5q-2 -12 -6 -29.5t-6 -27.5l-88 -348h-172l-174 721h181l76 -362q3 -16 5.5 -36.5t4.5 -34.5q2 14 3.5 34t6.5 37l88 340h160l88 -340q5 -17 6.5 -37t3.5 -34q2 14 4.5 34.5t5.5 36.5l76 362h181z" />
    <glyph glyph-name="X" unicode="X" horiz-adv-x="707" 
d="M484 0l-118 206q-4 7 -7 19t-4 21q-2 -9 -5 -21.5t-7 -19.5l-119 -205h-223l234 369l-210 352h221l98 -188q10 -18 13 -39q2 9 4.5 19.5t7.5 19.5l99 188h224l-213 -357l226 -364h-221z" />
    <glyph glyph-name="Y" unicode="Y" horiz-adv-x="708" 
d="M446 289v-289h-182v289l-259 432h206l132 -248q5 -8 6.5 -17t3.5 -20q2 10 3.5 19t6.5 17l135 249h206z" />
    <glyph glyph-name="Z" unicode="Z" horiz-adv-x="622" 
d="M290 167q-8 -12 -20 -20h311v-147h-539v127l301 427q8 11 20 20h-287l-46 147h559v-128z" />
    <glyph glyph-name="bracketleft" unicode="[" horiz-adv-x="344" 
d="M54 -163v934h287v-112l-127 -9v-692l127 -9v-112h-287z" />
    <glyph glyph-name="backslash" unicode="\" horiz-adv-x="497" 
d="M347 -15l-319 752h123l319 -752h-123z" />
    <glyph glyph-name="bracketright" unicode="]" horiz-adv-x="344" 
d="M2 -163v112l128 9v692l-128 9v112h288v-934h-288z" />
    <glyph glyph-name="asciicircum" unicode="^" 
d="M466 444l-136 160l-137 -160l-68 58l161 212q11 15 22.5 19t21.5 4t21.5 -4t22.5 -19l160 -212z" />
    <glyph glyph-name="underscore" unicode="_" horiz-adv-x="512" 
d="M-6 -143v98h524v-98h-524z" />
    <glyph glyph-name="grave" unicode="`" horiz-adv-x="358" 
d="M50 737l95 95l155 -166q5 -5 6 -9t-5 -10l-51 -48q-6 -6 -10 -5.5t-9 4.5z" />
    <glyph glyph-name="a" unicode="a" horiz-adv-x="594" 
d="M414 0l-17 41q-33 -28 -69 -42t-82 -14q-109 0 -163.5 49t-54.5 137q0 50 18 82.5t48 51.5t68.5 26.5t79.5 7.5q59 0 120 -11v48q0 24 -16.5 38t-58.5 14q-26 0 -55 -8t-51 -34l-114 67q38 51 94 75t137 24q121 0 183 -47.5t62 -128.5v-376h-129zM362 237
q-15 2 -32.5 3.5t-34.5 1.5q-16 0 -31.5 -2.5t-28 -9.5t-20 -20t-7.5 -33q0 -38 19 -53.5t49 -15.5q44 0 86 24v105z" />
    <glyph glyph-name="b" unicode="b" horiz-adv-x="622" 
d="M594 272q0 -77 -19 -131.5t-55.5 -89t-89.5 -50.5t-121 -16q-58 0 -126.5 14t-131.5 43v737h179v-213q0 -8 -3.5 -19t-14.5 -26q32 17 59.5 24t51.5 7q133 0 202 -68.5t69 -211.5zM412 272q0 88 -25 124t-75 36q-19 0 -40 -5.5t-42 -15.5v-295q26 -6 44.5 -7.5t35.5 -1.5
q59 0 80.5 38.5t21.5 126.5z" />
    <glyph glyph-name="c" unicode="c" horiz-adv-x="573" 
d="M558 124q-30 -67 -90 -103t-151 -36q-79 0 -134 20t-89.5 57.5t-50 89.5t-15.5 117q0 63 15 115.5t49.5 90t89.5 58t135 20.5q91 0 151 -37t90 -104l-129 -57q-11 18 -21.5 31t-23.5 21.5t-29 12.5t-38 4q-27 0 -47 -7t-33.5 -25t-20 -48t-6.5 -75t6 -75t19 -48t33.5 -25
t48.5 -7q22 0 38 4t29 12t23.5 21t21.5 31l129 -58v0z" />
    <glyph glyph-name="d" unicode="d" horiz-adv-x="626" 
d="M438 0l-14 37q-27 -23 -61.5 -37.5t-74.5 -14.5q-54 0 -101.5 15.5t-83 49.5t-55.5 88.5t-20 132.5q0 71 19.5 123.5t55.5 87.5t87.5 52.5t114.5 17.5q19 0 46.5 -5.5t53.5 -19.5q-8 15 -10 22.5t-2 16.5v213h179v-779h-134zM393 415q-23 10 -40.5 13t-32.5 3
q-57 0 -83.5 -36.5t-26.5 -123.5q0 -35 4.5 -64.5t16 -52t31 -35t50.5 -12.5q17 0 37 5t44 19v284z" />
    <glyph glyph-name="e" unicode="e" horiz-adv-x="607" 
d="M207 225q0 -55 25.5 -84t82.5 -29q75 0 112 58l139 -46q-35 -66 -95 -102.5t-156 -36.5q-287 0 -287 284q0 140 72.5 211.5t210.5 71.5q75 0 126 -22.5t82.5 -62.5t45.5 -94.5t14 -117.5v-30h-372zM405 331q-3 48 -28 72.5t-65 24.5q-42 0 -68.5 -21.5t-34.5 -75.5h196z
" />
    <glyph glyph-name="f" unicode="f" horiz-adv-x="464" 
d="M455 627q-26 8 -53.5 14t-53.5 6q-35 0 -54.5 -16.5t-19.5 -62.5v-31h162l-33 -131h-129v-406h-181v369q0 9 2.5 17.5t12.5 19.5h-89v131h74v31q0 66 18 107t49 64.5t71.5 31.5t85.5 8q51 0 91 -8t82 -19z" />
    <glyph glyph-name="g" unicode="g" horiz-adv-x="653" 
d="M628 417h-27q-7 0 -18.5 1t-25.5 9q9 -20 13 -41t4 -39q0 -107 -65 -155t-195 -48q-17 0 -38.5 2t-41.5 5q-7 1 -13.5 3t-13.5 2q-6 0 -11 -4t-5 -12q0 -10 6 -15t25 -8l206 -36q46 -8 80.5 -19.5t57 -30t34 -44.5t11.5 -63q0 -48 -20 -81.5t-58 -53.5t-93 -29t-126 -9
q-63 0 -118 8t-95.5 30.5t-63.5 62.5t-23 103q0 47 24 79t51 50q-25 25 -25 56q0 44 48 66q-26 25 -42.5 59.5t-16.5 81.5q0 58 20.5 97.5t56 63.5t83 34.5t101.5 10.5q45 0 85 -7t69 -24l57 31h125zM399 348q0 42 -20 63t-65 21t-64.5 -21t-19.5 -63t20 -61.5t64 -19.5
q85 0 85 81zM422 -66q0 23 -8 37.5t-37 19.5l-172 31q-13 -17 -17 -31.5t-4 -36.5q0 -44 32.5 -62.5t97.5 -18.5q56 0 82 15.5t26 45.5z" />
    <glyph glyph-name="h" unicode="h" horiz-adv-x="619" 
d="M389 0v333q0 47 -14 69.5t-49 22.5q-24 0 -47.5 -10t-46.5 -26v-389h-182v778h182v-277q34 30 65 40.5t65 10.5q55 0 94 -16.5t64.5 -45.5t37.5 -69t12 -88v-333h-181z" />
    <glyph glyph-name="i" unicode="i" horiz-adv-x="283" 
d="M51 0v537h181v-537h-181zM59 618q-10 0 -10 10v141q0 10 10 10h166q10 0 10 -10v-141q0 -10 -10 -10h-166z" />
    <glyph glyph-name="j" unicode="j" horiz-adv-x="283" 
d="M232 -75q0 -35 -9.5 -65.5t-30.5 -53t-53.5 -35t-77.5 -12.5h-109v139h77q14 0 18 6.5t4 20.5v612h181v-612zM59 618q-10 0 -10 10v141q0 10 10 10h166q10 0 10 -10v-141q0 -10 -10 -10h-166z" />
    <glyph glyph-name="k" unicode="k" horiz-adv-x="634" 
d="M403 0l-138 202q-4 6 -5.5 12.5t-1.5 19.5l-27 -22v-212h-180v779h180v-386l151 144h240l-249 -208l250 -329h-220z" />
    <glyph glyph-name="l" unicode="l" horiz-adv-x="319" 
d="M202 -9q-74 0 -112.5 40.5t-38.5 118.5v629h180v-629q0 -13 4.5 -21t18.5 -8h45v-130h-97z" />
    <glyph glyph-name="m" unicode="m" horiz-adv-x="917" 
d="M690 0v339q0 49 -12 68t-39 19q-26 0 -47 -9t-44 -26q3 -27 3 -52v-339h-180v339q0 48 -10.5 67.5t-38.5 19.5q-26 0 -46.5 -10.5t-43.5 -26.5v-389h-181v537h150l19 -50q34 36 71 51t76 15q51 0 85 -18t63 -56q42 41 81.5 57.5t87.5 16.5q97 0 141.5 -53.5t44.5 -160.5
v-339h-180z" />
    <glyph glyph-name="n" unicode="n" horiz-adv-x="616" 
d="M389 0v333q0 47 -14 70t-49 23q-24 0 -47.5 -10.5t-46.5 -26.5v-389h-181v537h150l18 -49q38 38 72 51.5t71 13.5q55 0 94 -16.5t64.5 -46t37.5 -69.5t12 -88v-333h-181z" />
    <glyph glyph-name="o" unicode="o" horiz-adv-x="623" 
d="M595 270q0 -63 -15.5 -115t-49 -90t-87.5 -59t-132 -21t-131.5 21t-87.5 58.5t-49 89.5t-15 115t15 115t49 89.5t87.5 58.5t131.5 21t132 -20.5t87.5 -58t49 -89.5t15.5 -115zM412 270q0 46 -6 75t-19 46t-32 23.5t-44 6.5q-26 0 -44.5 -6.5t-31.5 -23.5t-19 -46.5
t-6 -75.5t6 -75.5t19 -47t31.5 -24t44.5 -6.5q25 0 44 7t32 24.5t19 47t6 75.5z" />
    <glyph glyph-name="p" unicode="p" horiz-adv-x="626" 
d="M598 272q0 -66 -17 -119t-51 -90.5t-86.5 -57.5t-122.5 -20q-21 0 -46.5 4.5t-50.5 16.5q6 -14 8.5 -20t2.5 -14v-215h-181v780h135l15 -38q31 28 67 41t74 13q55 0 101.5 -17t80.5 -52t52.5 -87.5t18.5 -124.5zM417 272q0 80 -23.5 120t-78.5 40q-17 0 -36.5 -6.5
t-43.5 -20.5v-283q23 -11 41 -13.5t36 -2.5q56 0 80.5 40t24.5 126z" />
    <glyph glyph-name="q" unicode="q" horiz-adv-x="628" 
d="M394 -243v212q0 6 2 16t7 20q-26 -10 -49.5 -15t-55.5 -5q-71 0 -122 19t-84 55t-48.5 87.5t-15.5 115.5q0 85 21.5 141.5t60 89.5t92 46.5t116.5 13.5t126.5 -9.5t130.5 -27.5v-759h-181zM394 424q-23 5 -41 7t-33 2q-58 0 -83.5 -39.5t-25.5 -131.5q0 -45 6.5 -75
t19 -48t31.5 -25t45 -7q18 0 38.5 3t42.5 11v303z" />
    <glyph glyph-name="r" unicode="r" horiz-adv-x="431" 
d="M409 406q-16 2 -32.5 3.5t-34.5 1.5q-29 0 -57.5 -5t-52.5 -19v-387h-181v537h151l17 -47q32 40 65 51.5t67 11.5q14 0 27.5 -2t30.5 -5v-140v0z" />
    <glyph glyph-name="s" unicode="s" horiz-adv-x="549" 
d="M524 173q0 -48 -18.5 -83t-51.5 -58.5t-79 -35t-101 -11.5q-102 0 -162 36t-88 93l127 48q21 -32 50.5 -45t72.5 -13q14 0 28 2t25 7t18 15t7 25q0 16 -7 27.5t-33 16.5l-128 21q-31 5 -58 17t-47.5 32.5t-32 50.5t-11.5 70q0 45 19.5 76.5t52.5 51t77 28.5t93 9
q85 0 142 -28t92 -79l-118 -62q-20 23 -48 36t-68 13q-27 0 -48.5 -8t-21.5 -34q0 -31 33 -37l113 -19q39 -6 70.5 -17.5t54 -30.5t34.5 -47t12 -67z" />
    <glyph glyph-name="t" unicode="t" horiz-adv-x="494" 
d="M495 55q-38 -34 -83 -52t-109 -18q-41 0 -78 9.5t-64.5 30.5t-43.5 54t-16 80v207q0 21 16 40h-99v131h83v171l180 49v-220h193l-42 -131h-151v-247q0 -22 12 -30.5t32 -8.5q24 0 41 7.5t34 21.5l95 -94v0z" />
    <glyph glyph-name="u" unicode="u" horiz-adv-x="616" 
d="M416 0l-19 48q-38 -38 -72 -50.5t-71 -12.5q-55 0 -94 16.5t-64.5 45.5t-37.5 69t-12 88v333h181v-333q0 -46 13.5 -69.5t48.5 -23.5q24 0 48 10t47 26v390h181v-537h-149z" />
    <glyph glyph-name="v" unicode="v" horiz-adv-x="616" 
d="M393 0h-172l-209 537h186l94 -300q7 -23 10 -46.5t6 -46.5q4 26 6.5 47t10.5 46l94 300h185z" />
    <glyph glyph-name="w" unicode="w" horiz-adv-x="856" 
d="M672 0h-156l-69 236q-4 13 -6.5 22.5t-4.5 19.5t-4 22.5t-5 30.5q-3 -18 -5 -30.5t-4 -22.5t-4.5 -20t-6.5 -22l-69 -236h-156l-169 537h179l60 -254q3 -13 7 -35t7 -59q8 41 12.5 62t7.5 32l69 254h144l70 -254q1 -6 3.5 -12t5 -16.5t5 -26t5.5 -39.5q2 23 4.5 38
t4.5 25t3.5 17t3.5 14l59 254h180z" />
    <glyph glyph-name="x" unicode="x" horiz-adv-x="641" 
d="M423 0l-89 135q-7 11 -10.5 22.5t-5.5 37.5q-5 -25 -7.5 -38.5t-7.5 -21.5l-82 -135h-213l198 277l-186 260h212l74 -120q8 -12 10 -25t6 -38q2 24 5.5 37.5t11.5 26.5l70 119h210l-179 -263l193 -274h-210z" />
    <glyph glyph-name="y" unicode="y" horiz-adv-x="629" 
d="M356 -122q-12 -30 -29 -52.5t-42 -37.5t-59.5 -22.5t-81.5 -7.5h-96v133h96q20 0 30 10.5t19 33.5l31 77l-211 525h188l102 -314q4 -11 7 -23t4 -28q2 16 5.5 28t6.5 23l101 314h188z" />
    <glyph glyph-name="z" unicode="z" horiz-adv-x="548" 
d="M42 0v126l211 243q7 8 14.5 13.5t30.5 13.5h-225l-42 141h478v-126l-208 -241q-3 -4 -6 -7.5t-7.5 -7t-12 -7.5t-20.5 -9h256v-139h-469z" />
    <glyph glyph-name="braceleft" unicode="{" horiz-adv-x="390" 
d="M222 -163q-57 0 -92 34t-35 101v210q0 13 -2.5 26t-9 23.5t-19 18t-33.5 10.5v89q21 3 33 10t19 17.5t9 23t2 26.5v210q0 67 35 101t92 34h160v-113h-94q-19 0 -26.5 -7t-7.5 -30v-207q0 -17 -3.5 -34t-12.5 -32t-24.5 -27t-38.5 -18q23 -6 38.5 -17.5t24.5 -26.5t13 -32
t4 -33v-207q0 -23 7.5 -30t26.5 -7h94v-113h-160z" />
    <glyph glyph-name="bar" unicode="|" horiz-adv-x="297" 
d="M69 -163v934h159v-934h-159z" />
    <glyph glyph-name="braceright" unicode="}" horiz-adv-x="390" 
d="M359 260q-21 -3 -33.5 -10.5t-19 -18t-9 -23.5t-2.5 -26v-210q0 -67 -35 -101t-92 -34h-160v113h89q19 0 29 7t10 30v207q0 16 4 33t13 32t24.5 26.5t38.5 17.5q-23 6 -38.5 18t-24.5 27t-12.5 32t-3.5 34v207q0 23 -10 30t-29 7h-90v113h161q57 0 92 -34t35 -101v-210
q0 -14 2 -26.5t9 -23t19 -17.5t33 -10v-89v0z" />
    <glyph glyph-name="asciitilde" unicode="~" 
d="M573 364q-26 -37 -58 -53t-76 -16q-36 0 -63.5 13.5t-52.5 29.5t-49.5 29.5t-52.5 13.5q-45 0 -77 -16t-58 -53v144q26 37 58 53t76 16q39 0 67.5 -13.5t52.5 -29.5t47 -29.5t51 -13.5q45 0 77 16t58 53v-144v0z" />
    <glyph glyph-name="uni00A0" unicode="&#xa0;" horiz-adv-x="233" 
 />
    <glyph glyph-name="exclamdown" unicode="&#xa1;" horiz-adv-x="284" 
d="M222 397q0 -8 -1 -9t-7 -1h-147q-6 0 -7 1t-1 9v146q0 7 1 8t7 1h147q6 0 7 -1t1 -8v-146zM53 -227v371l22 181h133l22 -182v-370h-177z" />
    <glyph glyph-name="cent" unicode="&#xa2;" 
d="M445 433q-2 29 -22 49t-72 20q-51 0 -73 -35t-22 -109t22 -108t73 -34q24 0 40 5t28 13.5t21 20.5t18 26l120 -58q-31 -53 -68.5 -82t-93.5 -41v-115h-138v115q-104 19 -149.5 87t-45.5 171q0 51 10.5 94t33.5 77t60 56.5t90 31.5v120h139v-118q76 -12 118.5 -59.5
t44.5 -126.5h-134z" />
    <glyph glyph-name="sterling" unicode="&#xa3;" 
d="M512 550q-17 15 -31 26t-29.5 17.5t-33.5 9.5t-41 3q-42 0 -63.5 -19t-21.5 -72v-89h148v-140h-148v-90q0 -17 -5.5 -31.5t-19.5 -24.5h330v-140h-504v129q16 13 23 27t7 38v92h-76v140h76v89q0 48 12.5 88.5t41 70.5t74.5 46.5t114 16.5q78 0 136.5 -19t105.5 -69z" />
    <glyph glyph-name="currency" unicode="&#xa4;" horiz-adv-x="645" 
d="M583 557q0 -8 -7 -15l-86 -85q23 -41 23 -86q0 -48 -24 -90l84 -84q7 -7 7 -15q0 -6 -5 -11l-57 -57q-5 -5 -11 -5q-8 0 -15 7l-86 87q-38 -21 -82 -21q-46 0 -86 22l-85 -85q-3 -3 -7 -5.5t-9 -2.5t-10 5l-57 57q-5 5 -5 12q0 8 7 15l85 84q-23 41 -23 87q0 21 4.5 42
t15.5 40l-85 86q-7 7 -7 15q0 6 5 11l57 57q5 5 11 5q8 0 15 -7l83 -83q21 12 44.5 17.5t46.5 5.5q46 0 86 -22l85 85q7 7 15 7q6 0 11 -5l57 -57q5 -5 5 -11zM410 374q0 35 -24.5 59t-59.5 24t-60 -24t-25 -59t25 -59.5t60 -24.5t59.5 24.5t24.5 59.5z" />
    <glyph glyph-name="yen" unicode="&#xa5;" 
d="M549 519h75v-101h-130l-42 -74h172v-101h-204v-243h-179v243h-209v101h176l-41 74h-135v101h78l-114 202h193l127 -257q6 -12 8.5 -24t4.5 -22q2 10 3.5 21t8.5 25l128 257h194z" />
    <glyph glyph-name="brokenbar" unicode="&#xa6;" horiz-adv-x="329" 
d="M93 433v317h143v-317h-143zM93 0v317h143v-317h-143z" />
    <glyph glyph-name="section" unicode="&#xa7;" horiz-adv-x="630" 
d="M557 97q0 -57 -15.5 -97t-47 -65t-79.5 -36t-114 -11h-223v200h139v-79h84q33 0 53 4.5t30 13t13 21.5t3 30q0 25 -10.5 35.5t-39.5 18.5l-126 32q-84 21 -118.5 74.5t-34.5 133.5v148q0 55 14.5 93.5t42 62.5t68 34.5t92.5 10.5h257v-191h-138v70h-119q-28 0 -45 -10
t-17 -39q0 -25 8.5 -37.5t40.5 -20.5l113 -30q40 -11 71.5 -24.5t53.5 -35.5t33 -55.5t11 -85.5v-165zM400 274q0 29 -11 44.5t-37 22.5l-107 27q-7 2 -11 7.5t-8 13.5v-33q0 -29 10 -46.5t37 -24.5l108 -28q11 -4 19 -21v38z" />
    <glyph glyph-name="dieresis" unicode="&#xa8;" horiz-adv-x="517" 
d="M461 641q0 -8 -7 -8h-132q-8 0 -8 8v138q0 9 8 9h132q7 0 7 -9v-138zM205 641q0 -8 -7 -8h-132q-8 0 -8 8v138q0 9 8 9h132q7 0 7 -9v-138z" />
    <glyph glyph-name="copyright" unicode="&#xa9;" horiz-adv-x="896" 
d="M836 359q0 -78 -30.5 -146t-83.5 -119t-124 -80t-151 -29t-150.5 29t-123 80t-83 119t-30.5 146t30.5 147t83 120t123 81t150.5 30t151 -30t124 -81t83.5 -120t30.5 -147zM744 359q0 60 -23.5 112.5t-63.5 92t-94.5 62.5t-115.5 23q-62 0 -115.5 -23t-93.5 -62.5t-63 -92
t-23 -112.5t23 -112t63 -90.5t93.5 -61t115.5 -22.5q61 0 115.5 22.5t94.5 61.5t63.5 91t23.5 111zM616 248q-25 -49 -64.5 -78.5t-104.5 -29.5q-59 0 -96 18.5t-57.5 48.5t-28 69.5t-7.5 81.5q0 48 8.5 87.5t30 68.5t57.5 45t91 16q85 0 126 -45.5t45 -115.5h-101
q-5 37 -21.5 52.5t-48.5 15.5q-23 0 -38 -7t-23 -22t-11 -38.5t-3 -56.5q0 -61 14.5 -93.5t62.5 -32.5q24 0 45 13t41 54z" />
    <glyph glyph-name="ordfeminine" unicode="&#xaa;" horiz-adv-x="349" 
d="M241 456l-11 22q-32 -31 -77 -31q-51 0 -82 24t-31 73q0 25 9.5 41.5t25 26t35 13t40.5 3.5q29 0 57 -5v22q0 11 -6.5 17.5t-27.5 6.5q-15 0 -27 -3.5t-24 -15.5l-61 35q23 28 49.5 40t68.5 12q124 0 124 -92v-189h-62zM207 574q-7 1 -15.5 2t-16.5 1q-16 0 -27.5 -6.5
t-11.5 -23.5t8 -25t22 -8q11 0 21.5 3.5t19.5 8.5v48z" />
    <glyph glyph-name="guillemotleft" unicode="&#xab;" horiz-adv-x="620" 
d="M502 60l-191 215l191 216l80 -69l-121 -147l121 -146zM224 60l-192 215l192 216l80 -69l-121 -147l121 -146z" />
    <glyph glyph-name="logicalnot" unicode="&#xac;" 
d="M434 248v184h-345v132h481v-316h-136z" />
    <glyph glyph-name="uni00AD" unicode="&#xad;" horiz-adv-x="343" 
d="M33 246v147h277v-147h-277z" />
    <glyph glyph-name="registered" unicode="&#xae;" horiz-adv-x="896" 
d="M836 359q0 -78 -30.5 -146t-83.5 -119t-124 -80t-151 -29t-150.5 29t-123 80t-83 119t-30.5 146t30.5 147t83 120t123 81t150.5 30t151 -30t124 -81t83.5 -120t30.5 -147zM744 359q0 60 -23.5 112.5t-63.5 92t-94.5 62.5t-115.5 23q-62 0 -115.5 -23t-93.5 -62.5t-63 -92
t-23 -112.5t23 -112t63 -90.5t93.5 -61t115.5 -22.5q61 0 115.5 22.5t94.5 61.5t63.5 91t23.5 111zM502 154l-79 141q-2 3 -2 6.5t-1 8.5h-39v-156h-98v418h155q75 0 115 -36t40 -96q0 -38 -19 -70t-59 -48l100 -168h-113zM493 440q0 26 -14 39.5t-48 13.5h-50v-108h50
q35 0 48.5 14.5t13.5 40.5z" />
    <glyph glyph-name="macron" unicode="&#xaf;" horiz-adv-x="461" 
d="M67 626v130h332v-130h-332z" />
    <glyph glyph-name="degree" unicode="&#xb0;" horiz-adv-x="333" 
d="M303 600q0 -28 -11 -53t-29.5 -43.5t-43.5 -29t-53 -10.5t-52.5 10.5t-43 29t-29 43.5t-10.5 53t10.5 53t29 43.5t43 29t52.5 10.5t53 -10.5t43.5 -29t29.5 -43.5t11 -53zM221 600q0 23 -16 39.5t-39 16.5t-38.5 -16.5t-15.5 -39.5t15.5 -38.5t38.5 -15.5t39 15.5
t16 38.5z" />
    <glyph glyph-name="plusminus" unicode="&#xb1;" 
d="M398 386v-217h-135v217h-217v134h216v215h135v-215h216v-134h-215zM55 0v118h549v-118h-549z" />
    <glyph glyph-name="uni00B2" unicode="&#xb2;" horiz-adv-x="391" 
d="M349 607q0 -25 -6.5 -44t-20 -35.5t-33.5 -32t-46 -34.5q-35 -25 -52 -38.5t-26 -30.5h85v37h97v-124h-313q0 48 12.5 83t32.5 61.5t44.5 46t48.5 36.5q37 25 51.5 40t14.5 35t-9.5 30t-32.5 10q-61 0 -64 -67h-95q1 34 11 62t29.5 48t49 31.5t69.5 11.5q75 0 114 -31.5
t39 -94.5z" />
    <glyph glyph-name="uni00B3" unicode="&#xb3;" horiz-adv-x="387" 
d="M356 434q0 -35 -13.5 -60.5t-36 -43t-52.5 -26t-63 -8.5q-51 0 -95.5 22.5t-74.5 82.5l82 36q20 -33 39 -44.5t48 -11.5q56 0 56 58q0 17 -11 31t-34 14h-61l-23 76h81q40 0 40 49q0 18 -11.5 28.5t-34.5 10.5q-29 0 -49 -10t-37 -42l-82 36q16 31 35.5 50.5t41.5 30.5
t46 15.5t49 4.5q42 0 71 -9.5t47 -26t26 -38.5t8 -47q0 -26 -13 -49t-35 -36q27 -14 41.5 -39t14.5 -54z" />
    <glyph glyph-name="acute" unicode="&#xb4;" horiz-adv-x="358" 
d="M127 598q-5 -4 -9 -4.5t-10 5.5l-51 48q-6 6 -5 10t6 9l155 166l95 -95z" />
    <glyph glyph-name="mu" unicode="&#xb5;" horiz-adv-x="616" 
d="M421 0l-19 48q-38 -38 -72 -50.5t-71 -12.5h-13.5t-13.5 1v-228h-181v779h181v-333q0 -46 13.5 -69.5t48.5 -23.5q24 0 48 10t47 26v390h181v-537h-149z" />
    <glyph glyph-name="paragraph" unicode="&#xb6;" horiz-adv-x="553" 
d="M408 0v628h-55v-628h-100v342h-31q-55 0 -93.5 15.5t-63 41.5t-35.5 60.5t-11 73.5t11.5 73t36 59.5t63 40.5t92.5 15h286v-721h-100z" />
    <glyph glyph-name="periodcentered" unicode="&#xb7;" horiz-adv-x="294" 
d="M236 344q0 -11 -10 -11h-158q-10 0 -10 11v155q0 8 2 10t8 2h158q6 0 8 -2t2 -10v-155v0z" />
    <glyph glyph-name="cedilla" unicode="&#xb8;" horiz-adv-x="402" 
d="M329 -125q0 -45 -35.5 -68.5t-107.5 -23.5q-34 0 -68.5 6.5t-57.5 14.5l18 51q21 -4 42 -7.5t43 -3.5q52 0 52 36q0 14 -9.5 22t-26.5 8h-69l-29 45l56 58h88l-46 -54h29q68 0 94.5 -20t26.5 -64z" />
    <glyph glyph-name="uni00B9" unicode="&#xb9;" horiz-adv-x="331" 
d="M26 305v90h86v230l-86 -16v87l195 38v-339h86v-90h-281z" />
    <glyph glyph-name="ordmasculine" unicode="&#xba;" horiz-adv-x="353" 
d="M320 592q0 -32 -7.5 -58.5t-25 -45.5t-44.5 -30t-66 -11t-66 11t-44.5 30t-25 45.5t-7.5 58.5q0 31 7.5 58t25 46t44.5 30t66 11t66 -11t44.5 -30t25 -46t7.5 -58zM223 592q0 45 -11.5 59t-34.5 14t-35 -14t-12 -59t12 -59.5t35 -14.5t34.5 14.5t11.5 59.5z" />
    <glyph glyph-name="guillemotright" unicode="&#xbb;" horiz-adv-x="620" 
d="M396 60l-79 69l120 146l-120 147l79 69l193 -216zM117 60l-78 69l120 146l-120 147l78 69l193 -216z" />
    <glyph glyph-name="onequarter" unicode="&#xbc;" horiz-adv-x="929" 
d="M45 305v90h86v230l-86 -16v87l195 38v-339h86v-90h-281zM309 -15h-124l479 752h124zM840 95v-95h-109v95h-195v80l210 244h94v-235h44v-89h-44zM731 272l-75 -88h75v88z" />
    <glyph glyph-name="onehalf" unicode="&#xbd;" horiz-adv-x="976" 
d="M45 305v90h86v230l-86 -16v87l195 38v-339h86v-90h-281zM309 -15h-124l479 752h124zM931 302q0 -25 -6.5 -44t-20 -35.5t-33.5 -32t-46 -34.5q-35 -25 -52 -38.5t-26 -30.5h85v37h97v-124h-313q0 48 12.5 83t32.5 61.5t44.5 46t48.5 36.5q37 25 51.5 40t14.5 35t-9.5 30
t-32.5 10q-61 0 -64 -67h-95q1 34 11 62t29.5 48t49 31.5t69.5 11.5q75 0 114 -31.5t39 -94.5z" />
    <glyph glyph-name="threequarters" unicode="&#xbe;" horiz-adv-x="954" 
d="M334 -15h-124l479 752h124zM865 95v-95h-109v95h-195v80l210 244h94v-235h44v-89h-44zM756 272l-75 -88h75v88zM380 434q0 -35 -13.5 -60.5t-36 -43t-52.5 -26t-63 -8.5q-51 0 -95.5 22.5t-74.5 82.5l82 36q20 -33 39 -44.5t48 -11.5q56 0 56 58q0 17 -11 31t-34 14h-61
l-23 76h81q40 0 40 49q0 18 -11.5 28.5t-34.5 10.5q-29 0 -49 -10t-37 -42l-82 36q16 31 35.5 50.5t41.5 30.5t46 15.5t49 4.5q42 0 71 -9.5t47 -26t26 -38.5t8 -47q0 -26 -13 -49t-35 -36q27 -14 41.5 -39t14.5 -54z" />
    <glyph glyph-name="questiondown" unicode="&#xbf;" horiz-adv-x="584" 
d="M406 386q0 -8 -2 -10t-8 -2h-158q-6 0 -8 2t-2 10v155q0 11 10 11h158q10 0 10 -11v-155zM548 -1q0 -53 -11.5 -97.5t-39.5 -77t-76.5 -50.5t-123.5 -18q-69 0 -118.5 15t-80.5 43.5t-45.5 69.5t-14.5 94q0 32 7.5 57.5t21.5 48t35.5 44t49.5 45.5q13 11 28.5 23t29 26
t22 30t8.5 36v49h155v-49q0 -36 -6.5 -63t-19 -48.5t-32 -41t-45.5 -41.5t-42 -37t-25 -27t-12 -24t-3 -28q0 -49 18.5 -70.5t68.5 -21.5q56 0 77 26t22 87h152z" />
    <glyph glyph-name="Agrave" unicode="&#xc0;" horiz-adv-x="735" 
d="M538 0l-55 145h-239l-55 -145h-180l279 721h161l278 -721h-189zM372 445q-5 12 -8 31q-2 -8 -4.5 -16.5t-4.5 -14.5l-57 -155h130zM193 907l95 95l155 -166q5 -5 6 -9t-5 -10l-51 -48q-6 -6 -10 -5.5t-9 4.5z" />
    <glyph glyph-name="Aacute" unicode="&#xc1;" horiz-adv-x="735" 
d="M538 0l-55 145h-239l-55 -145h-180l279 721h161l278 -721h-189zM372 445q-5 12 -8 31q-2 -8 -4.5 -16.5t-4.5 -14.5l-57 -155h130zM353 766q-5 -4 -9 -4.5t-10 5.5l-51 48q-6 6 -5 10t6 9l155 166l95 -95z" />
    <glyph glyph-name="Acircumflex" unicode="&#xc2;" horiz-adv-x="735" 
d="M538 0l-55 145h-239l-55 -145h-180l279 721h161l278 -721h-189zM372 445q-5 12 -8 31q-2 -8 -4.5 -16.5t-4.5 -14.5l-57 -155h130zM477 759l-110 92l-109 -92l-62 62l162 166q5 5 11 5q5 0 10 -5l160 -166z" />
    <glyph glyph-name="Atilde" unicode="&#xc3;" horiz-adv-x="735" 
d="M538 0l-55 145h-239l-55 -145h-180l279 721h161l278 -721h-189zM372 445q-5 12 -8 31q-2 -8 -4.5 -16.5t-4.5 -14.5l-57 -155h130zM488 784q-18 -24 -49 -24q-10 0 -20.5 2.5t-18.5 8.5l-83 57q-3 2 -5.5 3.5t-5.5 1.5q-5 0 -9 -4l-59 -71l-73 49l90 118q19 25 48 25
q22 0 40 -12l80 -55q5 -4 11 -4t13 7l48 58l75 -51z" />
    <glyph glyph-name="Adieresis" unicode="&#xc4;" horiz-adv-x="735" 
d="M538 0l-55 145h-239l-55 -145h-180l279 721h161l278 -721h-189zM372 445q-5 12 -8 31q-2 -8 -4.5 -16.5t-4.5 -14.5l-57 -155h130zM569 787q0 -8 -7 -8h-132q-8 0 -8 8v138q0 9 8 9h132q7 0 7 -9v-138zM313 787q0 -8 -7 -8h-132q-8 0 -8 8v138q0 9 8 9h132q7 0 7 -9v-138
z" />
    <glyph glyph-name="Aring" unicode="&#xc5;" horiz-adv-x="735" 
d="M538 0l-55 145h-239l-55 -145h-180l279 721h161l278 -721h-189zM372 445q-5 12 -8 31q-2 -8 -4.5 -16.5t-4.5 -14.5l-57 -155h130zM489 867q0 -25 -9.5 -47.5t-26 -39t-39 -26t-47.5 -9.5t-47.5 9.5t-39 26t-26 39t-9.5 47.5t9.5 47.5t26 39t39 26t47.5 9.5t47.5 -9.5
t39 -26t26 -39t9.5 -47.5zM416 866q0 20 -14.5 34.5t-34.5 14.5t-33.5 -14.5t-13.5 -34.5t13.5 -33.5t33.5 -13.5t34.5 13.5t14.5 33.5z" />
    <glyph glyph-name="AE" unicode="&#xc6;" horiz-adv-x="1030" 
d="M463 0v154h-190l-80 -154h-184l355 721h627v-147h-347v-125h323l-48 -146h-281q6 -12 6 -25v-131h347v-147h-528zM463 553q-2 -8 -5 -15t-5 -12l-109 -223h119v250z" />
    <glyph glyph-name="Ccedilla" unicode="&#xc7;" horiz-adv-x="685" 
d="M487 -125q0 -45 -35.5 -68.5t-107.5 -23.5q-34 0 -68.5 6.5t-57.5 14.5l18 51q21 -4 42 -7.5t43 -3.5q52 0 52 36q0 14 -9.5 22t-26.5 8h-69l-29 45l36 38q-74 13 -120.5 49t-73 86.5t-36 110.5t-9.5 122q0 82 15.5 151t53 119t100.5 78t157 28q73 0 127.5 -19t90.5 -54
t55.5 -83.5t23.5 -107.5h-166q-9 62 -39 88t-92 26q-44 0 -71.5 -13t-43.5 -40.5t-21.5 -70.5t-5.5 -102q0 -55 5 -97t20.5 -71t43.5 -44t73 -15q28 0 51.5 6t43 20.5t36.5 37.5t32 56l138 -81q-17 -40 -41.5 -74.5t-60.5 -59.5t-84.5 -39.5t-114.5 -14.5h-3l-22 -26h29
q68 0 94.5 -20t26.5 -64z" />
    <glyph glyph-name="Egrave" unicode="&#xc8;" horiz-adv-x="613" 
d="M50 0v721h524v-148h-344v-124h314l-46 -149h-273q2 -5 3.5 -9t1.5 -10v-133h344v-148h-524zM144 906l95 95l155 -166q5 -5 6 -9t-5 -10l-51 -48q-6 -6 -10 -5.5t-9 4.5z" />
    <glyph glyph-name="Eacute" unicode="&#xc9;" horiz-adv-x="613" 
d="M50 0v721h524v-148h-344v-124h314l-46 -149h-273q2 -5 3.5 -9t1.5 -10v-133h344v-148h-524zM307 768q-5 -4 -9 -4.5t-10 5.5l-51 48q-6 6 -5 10t6 9l155 166l95 -95z" />
    <glyph glyph-name="Ecircumflex" unicode="&#xca;" horiz-adv-x="613" 
d="M50 0v721h524v-148h-344v-124h314l-46 -149h-273q2 -5 3.5 -9t1.5 -10v-133h344v-148h-524zM416 761l-110 92l-109 -92l-62 62l162 166q5 5 11 5q5 0 10 -5l160 -166z" />
    <glyph glyph-name="Edieresis" unicode="&#xcb;" horiz-adv-x="613" 
d="M50 0v721h524v-148h-344v-124h314l-46 -149h-273q2 -5 3.5 -9t1.5 -10v-133h344v-148h-524zM518 787q0 -8 -7 -8h-132q-8 0 -8 8v138q0 9 8 9h132q7 0 7 -9v-138zM262 787q0 -8 -7 -8h-132q-8 0 -8 8v138q0 9 8 9h132q7 0 7 -9v-138z" />
    <glyph glyph-name="Igrave" unicode="&#xcc;" horiz-adv-x="280" 
d="M50 0v721h180v-721h-180zM-14 905l95 95l155 -166q5 -5 6 -9t-5 -10l-51 -48q-6 -6 -10 -5.5t-9 4.5z" />
    <glyph glyph-name="Iacute" unicode="&#xcd;" horiz-adv-x="280" 
d="M50 0v721h180v-721h-180zM124 767q-5 -4 -9 -4.5t-10 5.5l-51 48q-6 6 -5 10t6 9l155 166l95 -95z" />
    <glyph glyph-name="Icircumflex" unicode="&#xce;" horiz-adv-x="280" 
d="M50 0v721h180v-721h-180zM251 761l-110 92l-109 -92l-62 62l162 166q5 5 11 5q5 0 10 -5l160 -166z" />
    <glyph glyph-name="Idieresis" unicode="&#xcf;" horiz-adv-x="280" 
d="M50 0v721h180v-721h-180zM343 788q0 -8 -7 -8h-132q-8 0 -8 8v138q0 9 8 9h132q7 0 7 -9v-138zM87 788q0 -8 -7 -8h-132q-8 0 -8 8v138q0 9 8 9h132q7 0 7 -9v-138z" />
    <glyph glyph-name="Eth" unicode="&#xd0;" horiz-adv-x="701" 
d="M669 369q0 -74 -19.5 -140.5t-64 -117.5t-116 -81t-174.5 -30h-245v308h-57v136h57v277h245q101 0 172 -27t116 -74.5t65.5 -112t20.5 -138.5zM485 369q0 106 -44 156t-146 50h-65v-131h135l-45 -136h-90v-163h65q100 0 145 55t45 169z" />
    <glyph glyph-name="Ntilde" unicode="&#xd1;" horiz-adv-x="743" 
d="M537 0l-318 420q3 -10 5.5 -20t2.5 -21v-379h-177v721h154l320 -420q-4 12 -6 22.5t-2 24.5v373h177v-721h-156zM492 783q-18 -24 -49 -24q-10 0 -20.5 2.5t-18.5 8.5l-83 57q-3 2 -5.5 3.5t-5.5 1.5q-5 0 -9 -4l-59 -71l-73 49l90 118q19 25 48 25q22 0 40 -12l80 -55
q5 -4 11 -4t13 7l48 58l75 -51z" />
    <glyph glyph-name="Ograve" unicode="&#xd2;" horiz-adv-x="734" 
d="M697 369q0 -77 -13.5 -146.5t-50.5 -122t-101 -84t-166 -31.5t-166 31.5t-100.5 84.5t-50 122.5t-13.5 145.5q0 69 13.5 135t50 118t101 83.5t165.5 31.5t165.5 -31.5t101 -83.5t50.5 -118t14 -135zM513 369q0 59 -7.5 100.5t-25 67.5t-45.5 38t-69 12t-69 -11.5
t-45 -37.5t-24 -67.5t-7 -101.5q0 -67 7.5 -112t24.5 -72.5t44.5 -39t68.5 -11.5t69 12t45.5 39.5t25 72.5t7.5 111zM209 906l95 95l155 -166q5 -5 6 -9t-5 -10l-51 -48q-6 -6 -10 -5.5t-9 4.5z" />
    <glyph glyph-name="Oacute" unicode="&#xd3;" horiz-adv-x="734" 
d="M697 369q0 -77 -13.5 -146.5t-50.5 -122t-101 -84t-166 -31.5t-166 31.5t-100.5 84.5t-50 122.5t-13.5 145.5q0 69 13.5 135t50 118t101 83.5t165.5 31.5t165.5 -31.5t101 -83.5t50.5 -118t14 -135zM513 369q0 59 -7.5 100.5t-25 67.5t-45.5 38t-69 12t-69 -11.5
t-45 -37.5t-24 -67.5t-7 -101.5q0 -67 7.5 -112t24.5 -72.5t44.5 -39t68.5 -11.5t69 12t45.5 39.5t25 72.5t7.5 111zM356 766q-5 -4 -9 -4.5t-10 5.5l-51 48q-6 6 -5 10t6 9l155 166l95 -95z" />
    <glyph glyph-name="Ocircumflex" unicode="&#xd4;" horiz-adv-x="734" 
d="M697 369q0 -77 -13.5 -146.5t-50.5 -122t-101 -84t-166 -31.5t-166 31.5t-100.5 84.5t-50 122.5t-13.5 145.5q0 69 13.5 135t50 118t101 83.5t165.5 31.5t165.5 -31.5t101 -83.5t50.5 -118t14 -135zM513 369q0 59 -7.5 100.5t-25 67.5t-45.5 38t-69 12t-69 -11.5
t-45 -37.5t-24 -67.5t-7 -101.5q0 -67 7.5 -112t24.5 -72.5t44.5 -39t68.5 -11.5t69 12t45.5 39.5t25 72.5t7.5 111zM476 760l-110 92l-109 -92l-62 62l162 166q5 5 11 5q5 0 10 -5l160 -166z" />
    <glyph glyph-name="Otilde" unicode="&#xd5;" horiz-adv-x="734" 
d="M697 369q0 -77 -13.5 -146.5t-50.5 -122t-101 -84t-166 -31.5t-166 31.5t-100.5 84.5t-50 122.5t-13.5 145.5q0 69 13.5 135t50 118t101 83.5t165.5 31.5t165.5 -31.5t101 -83.5t50.5 -118t14 -135zM513 369q0 59 -7.5 100.5t-25 67.5t-45.5 38t-69 12t-69 -11.5
t-45 -37.5t-24 -67.5t-7 -101.5q0 -67 7.5 -112t24.5 -72.5t44.5 -39t68.5 -11.5t69 12t45.5 39.5t25 72.5t7.5 111zM487 787q-18 -24 -49 -24q-10 0 -20.5 2.5t-18.5 8.5l-83 57q-3 2 -5.5 3.5t-5.5 1.5q-5 0 -9 -4l-59 -71l-73 49l90 118q19 25 48 25q22 0 40 -12l80 -55
q5 -4 11 -4t13 7l48 58l75 -51z" />
    <glyph glyph-name="Odieresis" unicode="&#xd6;" horiz-adv-x="734" 
d="M697 369q0 -77 -13.5 -146.5t-50.5 -122t-101 -84t-166 -31.5t-166 31.5t-100.5 84.5t-50 122.5t-13.5 145.5q0 69 13.5 135t50 118t101 83.5t165.5 31.5t165.5 -31.5t101 -83.5t50.5 -118t14 -135zM513 369q0 59 -7.5 100.5t-25 67.5t-45.5 38t-69 12t-69 -11.5
t-45 -37.5t-24 -67.5t-7 -101.5q0 -67 7.5 -112t24.5 -72.5t44.5 -39t68.5 -11.5t69 12t45.5 39.5t25 72.5t7.5 111zM568 790q0 -8 -7 -8h-132q-8 0 -8 8v138q0 9 8 9h132q7 0 7 -9v-138zM312 790q0 -8 -7 -8h-132q-8 0 -8 8v138q0 9 8 9h132q7 0 7 -9v-138z" />
    <glyph glyph-name="multiply" unicode="&#xd7;" 
d="M482 136l-152 153l-152 -153l-96 95l153 153l-152 152l95 95l152 -152l152 152l95 -95l-152 -152l152 -153z" />
    <glyph glyph-name="Oslash" unicode="&#xd8;" horiz-adv-x="734" 
d="M635 620q37 -52 49.5 -117t12.5 -134q0 -77 -13.5 -146.5t-50.5 -122t-101 -84t-166 -31.5q-59 0 -105 11t-81 31l-39 -52h-128l91 119q-39 54 -53.5 125.5t-14.5 149.5q0 69 13.5 135t50 118t101 83.5t165.5 31.5q62 0 110 -12t84 -35l43 56h128zM462 562q-35 27 -96 27
q-42 0 -70.5 -12t-45.5 -38.5t-24.5 -68t-7.5 -101.5q0 -68 9 -114zM516 369q0 50 -6 89l-232 -304q32 -22 88 -22q42 0 70.5 12t46 39.5t25.5 73t8 112.5z" />
    <glyph glyph-name="Ugrave" unicode="&#xd9;" horiz-adv-x="737" 
d="M689 304q0 -84 -24 -144t-67 -99t-102 -57.5t-129 -18.5t-128.5 18.5t-101 57.5t-66 99t-23.5 144v417h180v-417q0 -48 9 -80.5t27 -52.5t44 -28.5t59 -8.5q34 0 60 8.5t44 28.5t27 52.5t9 80.5v417h182v-417v0zM199 906l95 95l155 -166q5 -5 6 -9t-5 -10l-51 -48
q-6 -6 -10 -5.5t-9 4.5z" />
    <glyph glyph-name="Uacute" unicode="&#xda;" horiz-adv-x="737" 
d="M689 304q0 -84 -24 -144t-67 -99t-102 -57.5t-129 -18.5t-128.5 18.5t-101 57.5t-66 99t-23.5 144v417h180v-417q0 -48 9 -80.5t27 -52.5t44 -28.5t59 -8.5q34 0 60 8.5t44 28.5t27 52.5t9 80.5v417h182v-417v0zM353 766q-5 -4 -9 -4.5t-10 5.5l-51 48q-6 6 -5 10t6 9
l155 166l95 -95z" />
    <glyph glyph-name="Ucircumflex" unicode="&#xdb;" horiz-adv-x="737" 
d="M689 304q0 -84 -24 -144t-67 -99t-102 -57.5t-129 -18.5t-128.5 18.5t-101 57.5t-66 99t-23.5 144v417h180v-417q0 -48 9 -80.5t27 -52.5t44 -28.5t59 -8.5q34 0 60 8.5t44 28.5t27 52.5t9 80.5v417h182v-417v0zM478 760l-110 92l-109 -92l-62 62l162 166q5 5 11 5
q5 0 10 -5l160 -166z" />
    <glyph glyph-name="Udieresis" unicode="&#xdc;" horiz-adv-x="737" 
d="M689 304q0 -84 -24 -144t-67 -99t-102 -57.5t-129 -18.5t-128.5 18.5t-101 57.5t-66 99t-23.5 144v417h180v-417q0 -48 9 -80.5t27 -52.5t44 -28.5t59 -8.5q34 0 60 8.5t44 28.5t27 52.5t9 80.5v417h182v-417v0zM570 789q0 -8 -7 -8h-132q-8 0 -8 8v138q0 9 8 9h132
q7 0 7 -9v-138zM314 789q0 -8 -7 -8h-132q-8 0 -8 8v138q0 9 8 9h132q7 0 7 -9v-138z" />
    <glyph glyph-name="Yacute" unicode="&#xdd;" horiz-adv-x="708" 
d="M446 289v-289h-182v289l-259 432h206l132 -248q5 -8 6.5 -17t3.5 -20q2 10 3.5 19t6.5 17l135 249h206zM345 766q-5 -4 -9 -4.5t-10 5.5l-51 48q-6 6 -5 10t6 9l155 166l95 -95z" />
    <glyph glyph-name="Thorn" unicode="&#xde;" horiz-adv-x="639" 
d="M607 376q0 -115 -71 -181t-220 -66h-95q4 -5 6.5 -13.5t2.5 -14.5v-101h-180v722h180v-109h86q146 0 218.5 -61t72.5 -176zM424 376q0 53 -25 74.5t-83 21.5h-86v-202h86q57 0 82.5 24.5t25.5 81.5z" />
    <glyph glyph-name="germandbls" unicode="&#xdf;" horiz-adv-x="668" 
d="M638 232q0 -60 -16 -106t-54.5 -77.5t-104 -48t-164.5 -16.5v134q45 0 75 7.5t48 22t25 36t7 48.5q0 104 -124 104h-51v118h51q53 0 73 30.5t20 81.5q0 44 -21 70.5t-70 26.5q-53 0 -73.5 -31t-20.5 -83v-549h-184v549q0 61 19.5 107.5t55.5 77.5t87.5 46.5t115.5 15.5
q77 0 129.5 -21t84.5 -54t45.5 -74t13.5 -81q0 -59 -28 -101.5t-73 -59.5q27 -8 51.5 -23t43 -36.5t29 -50t10.5 -63.5z" />
    <glyph glyph-name="agrave" unicode="&#xe0;" horiz-adv-x="594" 
d="M414 0l-17 41q-33 -28 -69 -42t-82 -14q-109 0 -163.5 49t-54.5 137q0 50 18 82.5t48 51.5t68.5 26.5t79.5 7.5q59 0 120 -11v48q0 24 -16.5 38t-58.5 14q-26 0 -55 -8t-51 -34l-114 67q38 51 94 75t137 24q121 0 183 -47.5t62 -128.5v-376h-129zM362 237
q-15 2 -32.5 3.5t-34.5 1.5q-16 0 -31.5 -2.5t-28 -9.5t-20 -20t-7.5 -33q0 -38 19 -53.5t49 -15.5q44 0 86 24v105zM145 737l95 95l155 -166q5 -5 6 -9t-5 -10l-51 -48q-6 -6 -10 -5.5t-9 4.5z" />
    <glyph glyph-name="aacute" unicode="&#xe1;" horiz-adv-x="594" 
d="M414 0l-17 41q-33 -28 -69 -42t-82 -14q-109 0 -163.5 49t-54.5 137q0 50 18 82.5t48 51.5t68.5 26.5t79.5 7.5q59 0 120 -11v48q0 24 -16.5 38t-58.5 14q-26 0 -55 -8t-51 -34l-114 67q38 51 94 75t137 24q121 0 183 -47.5t62 -128.5v-376h-129zM362 237
q-15 2 -32.5 3.5t-34.5 1.5q-16 0 -31.5 -2.5t-28 -9.5t-20 -20t-7.5 -33q0 -38 19 -53.5t49 -15.5q44 0 86 24v105zM307 598q-5 -4 -9 -4.5t-10 5.5l-51 48q-6 6 -5 10t6 9l155 166l95 -95z" />
    <glyph glyph-name="acircumflex" unicode="&#xe2;" horiz-adv-x="594" 
d="M414 0l-17 41q-33 -28 -69 -42t-82 -14q-109 0 -163.5 49t-54.5 137q0 50 18 82.5t48 51.5t68.5 26.5t79.5 7.5q59 0 120 -11v48q0 24 -16.5 38t-58.5 14q-26 0 -55 -8t-51 -34l-114 67q38 51 94 75t137 24q121 0 183 -47.5t62 -128.5v-376h-129zM362 237
q-15 2 -32.5 3.5t-34.5 1.5q-16 0 -31.5 -2.5t-28 -9.5t-20 -20t-7.5 -33q0 -38 19 -53.5t49 -15.5q44 0 86 24v105zM406 593l-110 92l-109 -92l-62 62l162 166q5 5 11 5q5 0 10 -5l160 -166z" />
    <glyph glyph-name="atilde" unicode="&#xe3;" horiz-adv-x="594" 
d="M414 0l-17 41q-33 -28 -69 -42t-82 -14q-109 0 -163.5 49t-54.5 137q0 50 18 82.5t48 51.5t68.5 26.5t79.5 7.5q59 0 120 -11v48q0 24 -16.5 38t-58.5 14q-26 0 -55 -8t-51 -34l-114 67q38 51 94 75t137 24q121 0 183 -47.5t62 -128.5v-376h-129zM362 237
q-15 2 -32.5 3.5t-34.5 1.5q-16 0 -31.5 -2.5t-28 -9.5t-20 -20t-7.5 -33q0 -38 19 -53.5t49 -15.5q44 0 86 24v105zM417 626q-18 -24 -49 -24q-10 0 -20.5 2.5t-18.5 8.5l-83 57q-3 2 -5.5 3.5t-5.5 1.5q-5 0 -9 -4l-59 -71l-73 49l90 118q19 25 48 25q22 0 40 -12l80 -55
q5 -4 11 -4t13 7l48 58l75 -51z" />
    <glyph glyph-name="adieresis" unicode="&#xe4;" horiz-adv-x="594" 
d="M414 0l-17 41q-33 -28 -69 -42t-82 -14q-109 0 -163.5 49t-54.5 137q0 50 18 82.5t48 51.5t68.5 26.5t79.5 7.5q59 0 120 -11v48q0 24 -16.5 38t-58.5 14q-26 0 -55 -8t-51 -34l-114 67q38 51 94 75t137 24q121 0 183 -47.5t62 -128.5v-376h-129zM362 237
q-15 2 -32.5 3.5t-34.5 1.5q-16 0 -31.5 -2.5t-28 -9.5t-20 -20t-7.5 -33q0 -38 19 -53.5t49 -15.5q44 0 86 24v105zM498 641q0 -8 -7 -8h-132q-8 0 -8 8v138q0 9 8 9h132q7 0 7 -9v-138zM242 641q0 -8 -7 -8h-132q-8 0 -8 8v138q0 9 8 9h132q7 0 7 -9v-138z" />
    <glyph glyph-name="aring" unicode="&#xe5;" horiz-adv-x="594" 
d="M414 0l-17 41q-33 -28 -69 -42t-82 -14q-109 0 -163.5 49t-54.5 137q0 50 18 82.5t48 51.5t68.5 26.5t79.5 7.5q59 0 120 -11v48q0 24 -16.5 38t-58.5 14q-26 0 -55 -8t-51 -34l-114 67q38 51 94 75t137 24q121 0 183 -47.5t62 -128.5v-376h-129zM362 237
q-15 2 -32.5 3.5t-34.5 1.5q-16 0 -31.5 -2.5t-28 -9.5t-20 -20t-7.5 -33q0 -38 19 -53.5t49 -15.5q44 0 86 24v105zM419 715q0 -25 -9.5 -47.5t-26 -39t-39 -26t-47.5 -9.5t-47.5 9.5t-39 26t-26 39t-9.5 47.5t9.5 47.5t26 39t39 26t47.5 9.5t47.5 -9.5t39 -26t26 -39
t9.5 -47.5zM346 714q0 20 -14.5 34.5t-34.5 14.5t-33.5 -14.5t-13.5 -34.5t13.5 -33.5t33.5 -13.5t34.5 13.5t14.5 33.5z" />
    <glyph glyph-name="ae" unicode="&#xe6;" horiz-adv-x="943" 
d="M544 224q0 -51 26 -81.5t82 -30.5q38 0 64 14t45 44l140 -46q-36 -68 -95 -104t-154 -36q-75 0 -129 18.5t-92 58.5q-40 -34 -88 -55.5t-98 -21.5q-108 0 -162.5 49.5t-54.5 137.5q0 50 18 83t47.5 52t68 26.5t79.5 7.5q59 0 120 -11v47q0 24 -16.5 38t-58.5 14
q-26 0 -55 -8.5t-48 -34.5l-117 68q38 51 94 75.5t137 24.5q60 0 101.5 -13t77.5 -43q32 27 74.5 41.5t93.5 14.5q75 0 126.5 -23t84 -63t46.5 -94.5t14 -117.5v-31h-371zM742 331q-3 48 -28 72t-65 24q-39 0 -66.5 -22t-35.5 -74h195zM361 233q-15 3 -32.5 5t-34.5 2
q-16 0 -31.5 -2.5t-28 -9.5t-20 -19.5t-7.5 -31.5q0 -36 17.5 -52.5t44.5 -16.5q26 0 47.5 6.5t44.5 19.5v99z" />
    <glyph glyph-name="ccedilla" unicode="&#xe7;" horiz-adv-x="573" 
d="M558 124q-30 -67 -90 -103t-151 -36h-14l-22 -26h29q68 0 94.5 -20t26.5 -64q0 -45 -35.5 -68.5t-107.5 -23.5q-34 0 -68.5 6.5t-57.5 14.5l18 51q21 -4 42 -7.5t43 -3.5q52 0 52 36q0 14 -9.5 22t-26.5 8h-69l-29 45l38 40q-52 11 -88.5 35t-60 59.5t-34 80.5t-10.5 99
q0 63 15 115.5t49.5 90t89.5 58t135 20.5q91 0 151 -37t90 -104l-129 -57q-11 18 -21.5 31t-23.5 21.5t-29 12.5t-38 4q-27 0 -47 -7t-33.5 -25t-20 -48t-6.5 -75t6 -75t19 -48t33.5 -25t48.5 -7q22 0 38 4t29 12t23.5 21t21.5 31l129 -58v0z" />
    <glyph glyph-name="egrave" unicode="&#xe8;" horiz-adv-x="607" 
d="M207 225q0 -55 25.5 -84t82.5 -29q75 0 112 58l139 -46q-35 -66 -95 -102.5t-156 -36.5q-287 0 -287 284q0 140 72.5 211.5t210.5 71.5q75 0 126 -22.5t82.5 -62.5t45.5 -94.5t14 -117.5v-30h-372zM405 331q-3 48 -28 72.5t-65 24.5q-42 0 -68.5 -21.5t-34.5 -75.5h196z
M134 737l95 95l155 -166q5 -5 6 -9t-5 -10l-51 -48q-6 -6 -10 -5.5t-9 4.5z" />
    <glyph glyph-name="eacute" unicode="&#xe9;" horiz-adv-x="607" 
d="M207 225q0 -55 25.5 -84t82.5 -29q75 0 112 58l139 -46q-35 -66 -95 -102.5t-156 -36.5q-287 0 -287 284q0 140 72.5 211.5t210.5 71.5q75 0 126 -22.5t82.5 -62.5t45.5 -94.5t14 -117.5v-30h-372zM405 331q-3 48 -28 72.5t-65 24.5q-42 0 -68.5 -21.5t-34.5 -75.5h196z
M285 598q-5 -4 -9 -4.5t-10 5.5l-51 48q-6 6 -5 10t6 9l155 166l95 -95z" />
    <glyph glyph-name="ecircumflex" unicode="&#xea;" horiz-adv-x="607" 
d="M207 225q0 -55 25.5 -84t82.5 -29q75 0 112 58l139 -46q-35 -66 -95 -102.5t-156 -36.5q-287 0 -287 284q0 140 72.5 211.5t210.5 71.5q75 0 126 -22.5t82.5 -62.5t45.5 -94.5t14 -117.5v-30h-372zM405 331q-3 48 -28 72.5t-65 24.5q-42 0 -68.5 -21.5t-34.5 -75.5h196z
M413 593l-110 92l-109 -92l-62 62l162 166q5 5 11 5q5 0 10 -5l160 -166z" />
    <glyph glyph-name="edieresis" unicode="&#xeb;" horiz-adv-x="607" 
d="M207 225q0 -55 25.5 -84t82.5 -29q75 0 112 58l139 -46q-35 -66 -95 -102.5t-156 -36.5q-287 0 -287 284q0 140 72.5 211.5t210.5 71.5q75 0 126 -22.5t82.5 -62.5t45.5 -94.5t14 -117.5v-30h-372zM405 331q-3 48 -28 72.5t-65 24.5q-42 0 -68.5 -21.5t-34.5 -75.5h196z
M515 641q0 -8 -7 -8h-132q-8 0 -8 8v138q0 9 8 9h132q7 0 7 -9v-138zM259 641q0 -8 -7 -8h-132q-8 0 -8 8v138q0 9 8 9h132q7 0 7 -9v-138z" />
    <glyph glyph-name="igrave" unicode="&#xec;" horiz-adv-x="283" 
d="M51 0v537h181v-537h-181zM-16 737l95 95l155 -166q5 -5 6 -9t-5 -10l-51 -48q-6 -6 -10 -5.5t-9 4.5z" />
    <glyph glyph-name="iacute" unicode="&#xed;" horiz-adv-x="283" 
d="M51 0v537h181v-537h-181zM101 598q-5 -4 -9 -4.5t-10 5.5l-51 48q-6 6 -5 10t6 9l155 166l95 -95z" />
    <glyph glyph-name="icircumflex" unicode="&#xee;" horiz-adv-x="283" 
d="M51 0v537h181v-537h-181zM252 593l-110 92l-109 -92l-62 62l162 166q5 5 11 5q5 0 10 -5l160 -166z" />
    <glyph glyph-name="idieresis" unicode="&#xef;" horiz-adv-x="283" 
d="M51 0v537h181v-537h-181zM344 641q0 -8 -7 -8h-132q-8 0 -8 8v138q0 9 8 9h132q7 0 7 -9v-138zM88 641q0 -8 -7 -8h-132q-8 0 -8 8v138q0 9 8 9h132q7 0 7 -9v-138z" />
    <glyph glyph-name="eth" unicode="&#xf0;" horiz-adv-x="623" 
d="M594 291q0 -74 -15.5 -131t-49.5 -96t-88 -59.5t-130 -20.5q-78 0 -131.5 20.5t-87.5 58t-49 90t-15 115.5q0 64 15 115.5t48 88.5t86 57t128 20q6 0 24 -2.5t39 -8.5q-25 31 -50.5 53.5t-55.5 42.5l-71 -58l-62 52l59 47q-24 11 -46 21t-44 18l61 102q35 -12 68.5 -25
t65.5 -29l74 60l60 -51l-61 -50q54 -34 96 -75.5t71.5 -94t45 -117t15.5 -143.5zM413 269q0 42 -5 71t-17 46.5t-31.5 25.5t-48.5 8q-26 0 -44.5 -6.5t-31.5 -23t-19 -46.5t-6 -76t6 -75.5t19 -47t31.5 -24t44.5 -6.5q25 0 44.5 7t32 24t19 47t6.5 76z" />
    <glyph glyph-name="ntilde" unicode="&#xf1;" horiz-adv-x="616" 
d="M389 0v333q0 47 -14 70t-49 23q-24 0 -47.5 -10.5t-46.5 -26.5v-389h-181v537h150l18 -49q38 38 72 51.5t71 13.5q55 0 94 -16.5t64.5 -46t37.5 -69.5t12 -88v-333h-181zM428 626q-18 -24 -49 -24q-10 0 -20.5 2.5t-18.5 8.5l-83 57q-3 2 -5.5 3.5t-5.5 1.5q-5 0 -9 -4
l-59 -71l-73 49l90 118q19 25 48 25q22 0 40 -12l80 -55q5 -4 11 -4t13 7l48 58l75 -51z" />
    <glyph glyph-name="ograve" unicode="&#xf2;" horiz-adv-x="623" 
d="M595 270q0 -63 -15.5 -115t-49 -90t-87.5 -59t-132 -21t-131.5 21t-87.5 58.5t-49 89.5t-15 115t15 115t49 89.5t87.5 58.5t131.5 21t132 -20.5t87.5 -58t49 -89.5t15.5 -115zM412 270q0 46 -6 75t-19 46t-32 23.5t-44 6.5q-26 0 -44.5 -6.5t-31.5 -23.5t-19 -46.5
t-6 -75.5t6 -75.5t19 -47t31.5 -24t44.5 -6.5q25 0 44 7t32 24.5t19 47t6 75.5zM143 737l95 95l155 -166q5 -5 6 -9t-5 -10l-51 -48q-6 -6 -10 -5.5t-9 4.5z" />
    <glyph glyph-name="oacute" unicode="&#xf3;" horiz-adv-x="623" 
d="M595 270q0 -63 -15.5 -115t-49 -90t-87.5 -59t-132 -21t-131.5 21t-87.5 58.5t-49 89.5t-15 115t15 115t49 89.5t87.5 58.5t131.5 21t132 -20.5t87.5 -58t49 -89.5t15.5 -115zM412 270q0 46 -6 75t-19 46t-32 23.5t-44 6.5q-26 0 -44.5 -6.5t-31.5 -23.5t-19 -46.5
t-6 -75.5t6 -75.5t19 -47t31.5 -24t44.5 -6.5q25 0 44 7t32 24.5t19 47t6 75.5zM296 598q-5 -4 -9 -4.5t-10 5.5l-51 48q-6 6 -5 10t6 9l155 166l95 -95z" />
    <glyph glyph-name="ocircumflex" unicode="&#xf4;" horiz-adv-x="623" 
d="M595 270q0 -63 -15.5 -115t-49 -90t-87.5 -59t-132 -21t-131.5 21t-87.5 58.5t-49 89.5t-15 115t15 115t49 89.5t87.5 58.5t131.5 21t132 -20.5t87.5 -58t49 -89.5t15.5 -115zM412 270q0 46 -6 75t-19 46t-32 23.5t-44 6.5q-26 0 -44.5 -6.5t-31.5 -23.5t-19 -46.5
t-6 -75.5t6 -75.5t19 -47t31.5 -24t44.5 -6.5q25 0 44 7t32 24.5t19 47t6 75.5zM421 593l-110 92l-109 -92l-62 62l162 166q5 5 11 5q5 0 10 -5l160 -166z" />
    <glyph glyph-name="otilde" unicode="&#xf5;" horiz-adv-x="623" 
d="M595 270q0 -63 -15.5 -115t-49 -90t-87.5 -59t-132 -21t-131.5 21t-87.5 58.5t-49 89.5t-15 115t15 115t49 89.5t87.5 58.5t131.5 21t132 -20.5t87.5 -58t49 -89.5t15.5 -115zM412 270q0 46 -6 75t-19 46t-32 23.5t-44 6.5q-26 0 -44.5 -6.5t-31.5 -23.5t-19 -46.5
t-6 -75.5t6 -75.5t19 -47t31.5 -24t44.5 -6.5q25 0 44 7t32 24.5t19 47t6 75.5zM432 626q-18 -24 -49 -24q-10 0 -20.5 2.5t-18.5 8.5l-83 57q-3 2 -5.5 3.5t-5.5 1.5q-5 0 -9 -4l-59 -71l-73 49l90 118q19 25 48 25q22 0 40 -12l80 -55q5 -4 11 -4t13 7l48 58l75 -51z" />
    <glyph glyph-name="odieresis" unicode="&#xf6;" horiz-adv-x="623" 
d="M595 270q0 -63 -15.5 -115t-49 -90t-87.5 -59t-132 -21t-131.5 21t-87.5 58.5t-49 89.5t-15 115t15 115t49 89.5t87.5 58.5t131.5 21t132 -20.5t87.5 -58t49 -89.5t15.5 -115zM412 270q0 46 -6 75t-19 46t-32 23.5t-44 6.5q-26 0 -44.5 -6.5t-31.5 -23.5t-19 -46.5
t-6 -75.5t6 -75.5t19 -47t31.5 -24t44.5 -6.5q25 0 44 7t32 24.5t19 47t6 75.5zM513 641q0 -8 -7 -8h-132q-8 0 -8 8v138q0 9 8 9h132q7 0 7 -9v-138zM257 641q0 -8 -7 -8h-132q-8 0 -8 8v138q0 9 8 9h132q7 0 7 -9v-138z" />
    <glyph glyph-name="divide" unicode="&#xf7;" 
d="M415 527q0 -8 -1 -9.5t-9 -1.5h-149q-8 0 -9.5 1.5t-1.5 9.5v142q0 9 1.5 10.5t9.5 1.5h149q8 0 9 -1.5t1 -10.5v-142zM89 275v146h481v-146h-481zM415 27q0 -8 -1 -9.5t-9 -1.5h-149q-8 0 -9.5 1.5t-1.5 9.5v142q0 9 1.5 10.5t9.5 1.5h149q8 0 9 -1.5t1 -10.5v-142z" />
    <glyph glyph-name="oslash" unicode="&#xf8;" horiz-adv-x="623" 
d="M595 269q0 -63 -15.5 -115t-49 -90t-87.5 -59t-132 -21q-96 0 -160 33l-28 -32h-89l62 74q-36 39 -52 92t-16 117q0 63 15 115t49 90t87.5 59t131.5 21q48 0 87 -8t71 -24l26 32h89l-59 -74q38 -39 54 -92t16 -118zM374 405q-14 10 -29.5 13t-33.5 3q-26 0 -44.5 -7
t-31.5 -24t-19 -46.5t-6 -75.5q0 -16 1 -30.5t3 -31.5zM412 269q0 17 -1 32.5t-3 33.5l-162 -201q14 -11 29.5 -15t35.5 -4q25 0 44 7t32 24.5t19 47t6 75.5z" />
    <glyph glyph-name="ugrave" unicode="&#xf9;" horiz-adv-x="616" 
d="M416 0l-19 48q-38 -38 -72 -50.5t-71 -12.5q-55 0 -94 16.5t-64.5 45.5t-37.5 69t-12 88v333h181v-333q0 -46 13.5 -69.5t48.5 -23.5q24 0 48 10t47 26v390h181v-537h-149zM144 737l95 95l155 -166q5 -5 6 -9t-5 -10l-51 -48q-6 -6 -10 -5.5t-9 4.5z" />
    <glyph glyph-name="uacute" unicode="&#xfa;" horiz-adv-x="616" 
d="M416 0l-19 48q-38 -38 -72 -50.5t-71 -12.5q-55 0 -94 16.5t-64.5 45.5t-37.5 69t-12 88v333h181v-333q0 -46 13.5 -69.5t48.5 -23.5q24 0 48 10t47 26v390h181v-537h-149zM307 598q-5 -4 -9 -4.5t-10 5.5l-51 48q-6 6 -5 10t6 9l155 166l95 -95z" />
    <glyph glyph-name="ucircumflex" unicode="&#xfb;" horiz-adv-x="616" 
d="M416 0l-19 48q-38 -38 -72 -50.5t-71 -12.5q-55 0 -94 16.5t-64.5 45.5t-37.5 69t-12 88v333h181v-333q0 -46 13.5 -69.5t48.5 -23.5q24 0 48 10t47 26v390h181v-537h-149zM417 593l-110 92l-109 -92l-62 62l162 166q5 5 11 5q5 0 10 -5l160 -166z" />
    <glyph glyph-name="udieresis" unicode="&#xfc;" horiz-adv-x="616" 
d="M416 0l-19 48q-38 -38 -72 -50.5t-71 -12.5q-55 0 -94 16.5t-64.5 45.5t-37.5 69t-12 88v333h181v-333q0 -46 13.5 -69.5t48.5 -23.5q24 0 48 10t47 26v390h181v-537h-149zM509 641q0 -8 -7 -8h-132q-8 0 -8 8v138q0 9 8 9h132q7 0 7 -9v-138zM253 641q0 -8 -7 -8h-132
q-8 0 -8 8v138q0 9 8 9h132q7 0 7 -9v-138z" />
    <glyph glyph-name="yacute" unicode="&#xfd;" horiz-adv-x="629" 
d="M356 -122q-12 -30 -29 -52.5t-42 -37.5t-59.5 -22.5t-81.5 -7.5h-96v133h96q20 0 30 10.5t19 33.5l31 77l-211 525h188l102 -314q4 -11 7 -23t4 -28q2 16 5.5 28t6.5 23l101 314h188zM326 598q-5 -4 -9 -4.5t-10 5.5l-51 48q-6 6 -5 10t6 9l155 166l95 -95z" />
    <glyph glyph-name="thorn" unicode="&#xfe;" horiz-adv-x="626" 
d="M598 272q0 -66 -17 -119t-51 -90.5t-86.5 -57.5t-122.5 -20q-21 0 -46.5 4.5t-50.5 16.5q6 -14 8.5 -20t2.5 -14v-215h-181v1022h181v-257q26 16 53.5 23.5t56.5 7.5q55 0 101.5 -17t80.5 -52t52.5 -87.5t18.5 -124.5zM417 272q0 80 -23.5 120t-78.5 40q-17 0 -36.5 -6.5
t-43.5 -20.5v-283q23 -11 41 -13.5t36 -2.5q56 0 80.5 40t24.5 126z" />
    <glyph glyph-name="ydieresis" unicode="&#xff;" horiz-adv-x="629" 
d="M356 -122q-12 -30 -29 -52.5t-42 -37.5t-59.5 -22.5t-81.5 -7.5h-96v133h96q20 0 30 10.5t19 33.5l31 77l-211 525h188l102 -314q4 -11 7 -23t4 -28q2 16 5.5 28t6.5 23l101 314h188zM516 641q0 -8 -7 -8h-132q-8 0 -8 8v138q0 9 8 9h132q7 0 7 -9v-138zM260 641
q0 -8 -7 -8h-132q-8 0 -8 8v138q0 9 8 9h132q7 0 7 -9v-138z" />
    <glyph glyph-name="dotlessi" unicode="&#x131;" horiz-adv-x="283" 
d="M51 0v537h181v-537h-181z" />
    <glyph glyph-name="OE" unicode="&#x152;" horiz-adv-x="1085" 
d="M518 0v41q-31 -27 -69 -41.5t-81 -14.5q-102 0 -166.5 31.5t-101.5 84.5t-50.5 122.5t-13.5 145.5q0 69 14 135t50.5 118t101 83.5t166.5 31.5q47 0 85.5 -16.5t64.5 -41.5v42h528v-147h-347v-125h323l-48 -146h-280q3 -5 4 -9.5t1 -13.5v-133h347v-147h-528zM516 369
q0 59 -7.5 100.5t-25 67.5t-45.5 38t-70 12t-70 -11.5t-45 -37.5t-24.5 -67.5t-7.5 -101.5q0 -67 7.5 -112t25 -72.5t45.5 -39t69 -11.5t69 12t45.5 39.5t25.5 72.5t8 111z" />
    <glyph glyph-name="oe" unicode="&#x153;" horiz-adv-x="990" 
d="M592 224q0 -51 26 -81.5t82 -30.5q38 0 64 14t45 44l140 -46q-36 -68 -95 -104t-154 -36q-67 0 -115 19.5t-82 55.5q-32 -35 -78.5 -55t-114.5 -20q-77 0 -131 21t-87.5 58.5t-48.5 89.5t-15 115t15 115t48.5 90t87.5 59t131 21q69 0 114.5 -19.5t79.5 -54.5
q35 36 79.5 55t107.5 19q75 0 126.5 -23t84 -63t46.5 -94.5t14 -117.5v-31h-370zM789 331q-3 48 -27.5 72t-64.5 24q-39 0 -67.5 -22t-36.5 -74h196zM411 269q0 46 -6 75.5t-19 46.5t-32 23.5t-44 6.5q-26 0 -44.5 -7t-31.5 -24t-19 -46.5t-6 -75.5t6 -75.5t19 -47t31.5 -24
t44.5 -6.5q25 0 44 7t32 24.5t19 47t6 75.5z" />
    <glyph glyph-name="Scaron" unicode="&#x160;" horiz-adv-x="651" 
d="M623 221q0 -115 -78 -175.5t-219 -60.5q-113 0 -185 45t-114 127l142 69q26 -46 61.5 -70t95.5 -24q35 0 58 6t36.5 17t19 26t5.5 34q0 30 -14 46.5t-53 23.5q-38 6 -77.5 11.5t-76.5 14t-69.5 23t-56.5 38.5t-38 60.5t-14 89.5q0 52 21.5 92.5t59.5 67.5t89.5 41
t112.5 14q105 0 171.5 -35t111.5 -108l-143 -70q-23 35 -54.5 52t-85.5 17q-57 0 -81.5 -17.5t-24.5 -46.5q0 -28 12 -40.5t38 -17.5q40 -7 81.5 -12.5t80.5 -14.5t73.5 -24t60 -40.5t40 -64t14.5 -94.5zM346 769q-11 -10 -21 -10q-11 0 -21 10l-156 155l65 62l113 -94
l112 94l65 -62z" />
    <glyph glyph-name="scaron" unicode="&#x161;" horiz-adv-x="549" 
d="M524 173q0 -48 -18.5 -83t-51.5 -58.5t-79 -35t-101 -11.5q-102 0 -162 36t-88 93l127 48q21 -32 50.5 -45t72.5 -13q14 0 28 2t25 7t18 15t7 25q0 16 -7 27.5t-33 16.5l-128 21q-31 5 -58 17t-47.5 32.5t-32 50.5t-11.5 70q0 45 19.5 76.5t52.5 51t77 28.5t93 9
q85 0 142 -28t92 -79l-118 -62q-20 23 -48 36t-68 13q-27 0 -48.5 -8t-21.5 -34q0 -31 33 -37l113 -19q39 -6 70.5 -17.5t54 -30.5t34.5 -47t12 -67zM307 603q-11 -10 -21 -10q-11 0 -21 10l-156 155l65 62l113 -94l112 94l65 -62z" />
    <glyph glyph-name="Ydieresis" unicode="&#x178;" horiz-adv-x="708" 
d="M446 289v-289h-182v289l-259 432h206l132 -248q5 -8 6.5 -17t3.5 -20q2 10 3.5 19t6.5 17l135 249h206zM555 788q0 -8 -7 -8h-132q-8 0 -8 8v138q0 9 8 9h132q7 0 7 -9v-138zM299 788q0 -8 -7 -8h-132q-8 0 -8 8v138q0 9 8 9h132q7 0 7 -9v-138z" />
    <glyph glyph-name="Zcaron" unicode="&#x17d;" horiz-adv-x="622" 
d="M290 167q-8 -12 -20 -20h311v-147h-539v127l301 427q8 11 20 20h-287l-46 147h559v-128zM341 771q-11 -10 -21 -10q-11 0 -21 10l-156 155l65 62l113 -94l112 94l65 -62z" />
    <glyph glyph-name="zcaron" unicode="&#x17e;" horiz-adv-x="548" 
d="M42 0v126l211 243q7 8 14.5 13.5t30.5 13.5h-225l-42 141h478v-126l-208 -241q-3 -4 -6 -7.5t-7.5 -7t-12 -7.5t-20.5 -9h256v-139h-469zM294 603q-11 -10 -21 -10q-11 0 -21 10l-156 155l65 62l113 -94l112 94l65 -62z" />
    <glyph glyph-name="florin" unicode="&#x192;" 
d="M593 579q-22 6 -45 10.5t-44 4.5q-27 0 -44.5 -14.5t-22.5 -55.5l-6 -50h158l-46 -126h-125l-29 -265q-6 -56 -25 -93.5t-47.5 -60.5t-65 -33t-77.5 -10q-38 0 -73.5 5.5t-79.5 19.5l45 117q20 -5 41 -9.5t42 -4.5q29 0 46.5 14.5t22.5 56.5l25 229q1 8 6 17.5t13 16.5
h-115l16 126h98l5 53q5 57 23.5 94.5t46.5 60t63.5 32t74.5 9.5q40 0 79 -6t85 -19z" />
    <glyph glyph-name="circumflex" unicode="&#x2c6;" horiz-adv-x="444" 
d="M321 593l-110 92l-109 -92l-62 62l162 166q5 5 11 5q5 0 10 -5l160 -166z" />
    <glyph glyph-name="caron" unicode="&#x2c7;" horiz-adv-x="458" 
d="M250 603q-11 -10 -21 -10q-11 0 -21 10l-156 155l65 62l113 -94l112 94l65 -62z" />
    <glyph glyph-name="ring" unicode="&#x2da;" horiz-adv-x="407" 
d="M326 715q0 -25 -9.5 -47.5t-26 -39t-39 -26t-47.5 -9.5t-47.5 9.5t-39 26t-26 39t-9.5 47.5t9.5 47.5t26 39t39 26t47.5 9.5t47.5 -9.5t39 -26t26 -39t9.5 -47.5zM253 714q0 20 -14.5 34.5t-34.5 14.5t-33.5 -14.5t-13.5 -34.5t13.5 -33.5t33.5 -13.5t34.5 13.5
t14.5 33.5z" />
    <glyph glyph-name="tilde" unicode="&#x2dc;" horiz-adv-x="465" 
d="M354 626q-18 -24 -49 -24q-10 0 -20.5 2.5t-18.5 8.5l-83 57q-3 2 -5.5 3.5t-5.5 1.5q-5 0 -9 -4l-59 -71l-73 49l90 118q19 25 48 25q22 0 40 -12l80 -55q5 -4 11 -4t13 7l48 58l75 -51z" />
    <glyph glyph-name="endash" unicode="&#x2013;" horiz-adv-x="464" 
d="M36 248v144h393v-144h-393z" />
    <glyph glyph-name="emdash" unicode="&#x2014;" horiz-adv-x="903" 
d="M36 248v144h831v-144h-831z" />
    <glyph glyph-name="quoteleft" unicode="&#x2018;" horiz-adv-x="255" 
d="M223 746q-37 -26 -52 -49.5t-15 -58.5h39q7 0 8.5 -1.5t1.5 -9.5v-142q0 -9 -1.5 -10.5t-8.5 -1.5h-140q-7 0 -8.5 1.5t-1.5 10.5v131q0 59 36 109t93 77l49 -56v0z" />
    <glyph glyph-name="quoteright" unicode="&#x2019;" horiz-adv-x="255" 
d="M213 579q0 -59 -35.5 -109t-92.5 -77l-49 56q37 26 52 49.5t15 58.5h-39q-7 0 -8.5 1.5t-1.5 9.5v142q0 9 1.5 10.5t8.5 1.5h140q7 0 8 -1.5t1 -10.5v-131v0z" />
    <glyph glyph-name="quotesinglbase" unicode="&#x201a;" horiz-adv-x="255" 
d="M212 21q0 -32 -11.5 -61.5t-31 -55.5t-46 -47t-57.5 -36l-51 57q40 28 56.5 54.5t16.5 67.5h-44q-6 0 -8 1t-2 8v154q0 15 11 15h156q11 0 11 -15v-142v0z" />
    <glyph glyph-name="quotedblleft" unicode="&#x201c;" horiz-adv-x="488" 
d="M456 750q-37 -26 -52 -49.5t-15 -58.5h39q7 0 8.5 -1.5t1.5 -9.5v-142q0 -9 -1.5 -10.5t-8.5 -1.5h-140q-7 0 -8.5 1.5t-1.5 10.5v132q0 59 36 108.5t93 76.5zM224 750q-37 -26 -52 -49.5t-15 -58.5h39q7 0 8.5 -1.5t1.5 -9.5v-142q0 -9 -1.5 -10.5t-8.5 -1.5h-141
q-7 0 -8 1.5t-1 10.5v132q0 59 35.5 108.5t92.5 76.5z" />
    <glyph glyph-name="quotedblright" unicode="&#x201d;" horiz-adv-x="488" 
d="M442 578q0 -59 -35.5 -108.5t-92.5 -76.5l-50 56q37 26 52.5 49.5t15.5 58.5h-39q-7 0 -8.5 1.5t-1.5 9.5v142q0 9 1.5 10.5t8.5 1.5h140q7 0 8 -1.5t1 -10.5v-132zM210 578q0 -59 -36 -108.5t-93 -76.5l-49 56q37 26 52 49.5t15 58.5h-39q-7 0 -8.5 1.5t-1.5 9.5v142
q0 9 1.5 10.5t8.5 1.5h140q7 0 8.5 -1.5t1.5 -10.5v-132z" />
    <glyph glyph-name="quotedblbase" unicode="&#x201e;" horiz-adv-x="488" 
d="M465 21q0 -32 -11.5 -61.5t-31 -55.5t-46 -47t-57.5 -36l-51 57q40 28 56.5 54.5t16.5 67.5h-44q-6 0 -8 1t-2 8v154q0 15 11 15h156q11 0 11 -15v-142zM202 21q0 -32 -11.5 -61.5t-31 -55.5t-46 -47t-57.5 -36l-51 57q40 28 56.5 54.5t16.5 67.5h-44q-6 0 -8 1t-2 8v154
q0 15 11 15h156q11 0 11 -15v-142z" />
    <glyph glyph-name="dagger" unicode="&#x2020;" horiz-adv-x="562" 
d="M391 393l-37 10l10 -37v-366h-163v366l11 37l-38 -10h-148v160h148l38 -10l-11 40v196h163v-196l-10 -40l37 10h145v-160h-145z" />
    <glyph glyph-name="daggerdbl" unicode="&#x2021;" horiz-adv-x="562" 
d="M391 194l-37 10l10 -37v-167h-163v167l11 37l-38 -10h-148v154h148l38 -10l-11 40v35l11 36l-38 -9h-148v153h148l38 -10l-11 40v156h163v-156l-10 -40l37 10h145v-153h-145l-37 9l10 -36v-35l-10 -40l37 10h145v-154h-145z" />
    <glyph glyph-name="bullet" unicode="&#x2022;" horiz-adv-x="476" 
d="M435 301q0 -41 -15.5 -76.5t-42 -62t-62 -42t-76.5 -15.5t-77 15.5t-62.5 42t-42 62t-15.5 76.5t15.5 77t42 62.5t62.5 42t77 15.5t76.5 -15.5t62 -42t42 -62.5t15.5 -77z" />
    <glyph glyph-name="ellipsis" unicode="&#x2026;" horiz-adv-x="894" 
d="M836 11q0 -11 -10 -11h-158q-10 0 -10 11v155q0 8 2 10t8 2h158q6 0 8 -2t2 -10v-155zM536 11q0 -11 -10 -11h-158q-10 0 -10 11v155q0 8 2 10t8 2h158q6 0 8 -2t2 -10v-155zM236 11q0 -11 -10 -11h-158q-10 0 -10 11v155q0 8 2 10t8 2h158q6 0 8 -2t2 -10v-155z" />
    <glyph glyph-name="perthousand" unicode="&#x2030;" horiz-adv-x="1328" 
d="M302 -15h-128l475 752h128zM364 519q0 -40 -4.5 -79.5t-21 -71.5t-48 -52t-85.5 -20t-86 20t-48.5 52t-21 71.5t-4.5 79.5q0 39 5.5 77.5t22.5 68.5t48.5 49t83.5 19q51 0 82.5 -19t48.5 -49t22.5 -68.5t5.5 -77.5zM253 519q0 37 -2.5 61.5t-8 39.5t-14.5 21t-23 6
t-23.5 -6t-15 -21t-8 -39.5t-2.5 -61.5q0 -77 10.5 -107t38.5 -30q27 0 37.5 30t10.5 107zM909 214q0 -40 -4.5 -79.5t-21 -71.5t-48 -52t-85.5 -20t-86 20t-48.5 52t-21 71.5t-4.5 79.5q0 39 5.5 77.5t22.5 68.5t48.5 49t83.5 19q51 0 82.5 -19t48.5 -49t22.5 -68.5
t5.5 -77.5zM798 214q0 37 -2.5 61.5t-8 39.5t-14.5 21t-23 6t-23.5 -6t-15 -21t-8 -39.5t-2.5 -61.5q0 -77 10.5 -107t38.5 -30q27 0 37.5 30t10.5 107zM1283 214q0 -40 -4.5 -79.5t-21 -71.5t-48 -52t-85.5 -20t-86 20t-48.5 52t-21 71.5t-4.5 79.5q0 39 5.5 77.5
t22.5 68.5t48.5 49t83.5 19q51 0 82.5 -19t48.5 -49t22.5 -68.5t5.5 -77.5zM1172 214q0 37 -2.5 61.5t-8 39.5t-14.5 21t-23 6t-23.5 -6t-15 -21t-8 -39.5t-2.5 -61.5q0 -77 10.5 -107t38.5 -30q27 0 37.5 30t10.5 107z" />
    <glyph glyph-name="guilsinglleft" unicode="&#x2039;" horiz-adv-x="345" 
d="M226 60l-194 215l194 216l81 -69l-123 -147l123 -146z" />
    <glyph glyph-name="guilsinglright" unicode="&#x203a;" horiz-adv-x="345" 
d="M118 60l-79 69l121 146l-121 147l79 69l195 -216z" />
    <glyph glyph-name="Euro" unicode="&#x20ac;" 
d="M627 163q-15 -39 -36 -71.5t-52 -56t-74.5 -37t-101.5 -13.5q-64 0 -113.5 18.5t-86 52t-59.5 80.5t-33 103h-64l28 84h27q-1 9 -1 18.5v18.5v29h-54l28 84h34q18 123 90 193.5t203 70.5q65 0 113 -18t80 -50t49 -77.5t20 -99.5h-148q-8 58 -33.5 80.5t-80.5 22.5
t-81.5 -28t-36.5 -94h209l-30 -84h-186q0 -11 -0.5 -16t-0.5 -16q0 -7 0.5 -17.5t0.5 -16.5h170l-31 -84h-129q11 -56 38 -84.5t79 -28.5q50 0 81 25t56 86l126 -74v0z" />
    <glyph glyph-name="trademark" unicode="&#x2122;" horiz-adv-x="761" 
d="M635 382l-14 166l-49 -98h-74l-50 98l-13 -166h-95l29 339h86l79 -165l81 165h85l30 -339h-95zM233 644v-262h-101v262h-98v77h297v-77h-98z" />
    </font>
</defs>
</svg>
